<mxfile host="app.diagrams.net" modified="2024-04-08T21:35:56.771Z" agent="Mozilla/5.0 (Windows NT 10.0; Win64; x64) AppleWebKit/537.36 (KHTML, like Gecko) Chrome/123.0.0.0 Safari/537.36" etag="kC3jehV6WK1bjZ1lMWhP" version="24.2.2" type="github">
  <diagram name="PÃ¡gina-1" id="N-AEYg_OZQoqsS1afbsh">
    <mxGraphModel dx="1947" dy="1595" grid="1" gridSize="10" guides="1" tooltips="1" connect="1" arrows="1" fold="1" page="1" pageScale="1" pageWidth="827" pageHeight="1169" math="0" shadow="0">
      <root>
        <mxCell id="0" />
        <mxCell id="1" parent="0" />
        <mxCell id="SthXXuh-DSAAo5IE27aU-28" value="" style="shape=image;verticalLabelPosition=bottom;verticalAlign=top;imageAspect=0;aspect=fixed;image=data:image/png,iVBORw0KGgoAAAANSUhEUgAAAs4AAAD3CAYAAAANBtJgAAAAAXNSR0IArs4c6QAAAARnQU1BAACxjwv8YQUAAAAJcEhZcwAADsMAAA7DAcdvqGQAAFfQSURBVHhe7b1bbCRZet/5cTSakTSSZ+Wx1Ux3VQ1SKlkPixrZfFFlGg1raZQAa+WHylwOUJn2ahslwbAJ6IHiPqyYVSOzsuQHc/kgoGQYcqGl9SYLaDqzsNANUGPTAtrKpF+I1RT2waOyE3VpkS2hNavLaKyZUXPPdy4R50SciDyZTCbz8v8BQWbcT3znEv/znS8iVs4E5OF3j3r0926W9RzIg2312Ss39RxYNP7k9RHqwgKCNi4c2Coc2Coc2Gq6wN7h5NnqE/o/AAAAAAAAIAcIZwAAAAAAAAJY+Y/93/WGagAAAAAAAABivDHOb25/KP9/sPeG/A/yefnyJV27dk3PgUUD+buYIF/Dga3Cga3Cga2mC+wdTp4ORqgGAAAAAAAAAUA4AwAAAAAAEACEMwAAAAAAAAF4hTPHdPR/5i/1HAAAAAAAAMsBa+Cs5/zgcQYAAAAAACAACGcAAAAAAAACgHAGAAAAAAAgAK9w/sKX/oh+/Jc/recAAAAAAABYDlgDsxb24RXOH33tY/rq1/UMAAAAAAAASwJrYNbCPhCqAQAAAAAAQAAQzgAAAAAAAAQA4QwAAAAAAEAAEM4AAAAAAAAE4BXOX/4Xf5N+86fx5UAAAAAAALBcsAZmLezDK5w/95lP0Pd+p54BAAAAAABgSWANzFrYB0I1AAAAAAAACADCGQAAAAAAgABWXrx4caZ/R9Rbn6KvfOUr9Ie/8vf1EgAAAAAAMM8Izad/gTxYBzOt+jfkf5uVM4H+HfHm9ofy/wd7b8j/IJ+VlRXymBEsCMjfxQT5Gg5sFQ5sFQ5sNV1g73DydDBCNQAAAAAAAAgAwhkAAAAAAIAAIJwBAAAAAAAIAMJ5QTh9UqWVLx7QqZ5feI4e0srKQ+rr2VGvf+nsBS6BUzr44gpVn4xQyl4fUHVlRcYirjwwpRsAAMCs4BXO3e3Pieks0eirm4Bs0O1p5MbdOk7WvtHNo0oHr/WymSe+rodHepEGIm3K6PKTzId5o/9A1xN7SpWjPj0Uy0cSZxNClmur8wLOT/+dOtHBiXyA5+xeSS9dBlQ5jsr5UncaErYQ07y3ZdNlxjXGgtyfFh1+mwZrYR9e4fxDq58Uk55JUDGNupx61LxfFoVv9JtnZaNCdL/r3e/0/TZ1xHqxxYVzEaK2UYKYABNit2fVtxNqUZ0Kc9WhXBxkR+ZCBd0pDZ4RrRUzGt+FhYVimY6te0uP9pazjEtR5dqC77OEe8rITFpjwAG2XHz/586kFvZxzlCNEu2weKYG7Y3q8bq9Ta0N3359elzrUPN2Vc/PF5WD1nj2AJPjSo3a4oazc1PPLwyrVHtXiOeNDtXfMbcDroNn1L4zfbG1eqctbuo7IgVgMgxocKh/LhOvB3QsJEz1rbgMl+61qXZFzywRPOLQEZ1ltz5zHUc9G5lZ1RgLe39aHiYQ41yiuwcV6jztjtgTK9L6bc9+R11qbLTo7lt63sIduk563ZKhJG4PXQ0rx+sfHqntC6IC0SF78cRy05vk+Fnxu2/2iXqZySE0n+dvXdmj9tjb01Uk05oYttHnP5VxvHobmQZ3P99Qz8C+zijdDKddpPcoOUSVb7cI7/CSskfWkFPa5nqFPqfJA7M+FW5gX79vfSbpdDlpEXYZ6OUxQ/JkZhDieatpeVJUuiPbZJbdYfmcKNu2ZzUa1lSTcy7nOENsmFmuZx1lm/J98VOOsIl0R/YZZtcEWWVaexob4mejxOuy6uc4Nk3krbfdukSuFGmN7M5gmsy2RF63fT2Jup+w92yXtz51RRlr3sqXyNntql4nymZ0r5TllG3ia/vzjqXK3cOjuOyYdfn34VlidI3ht4eyhVcr8Nqx8sOzXcYxwAxy5qH6S38sptOz1gadVQ5O9NKTxLxFv3kmqvtZT8/mYx3nVeusIpLQ7OtVqXWVs9Yrveag4py7t0tntNESezBqP9qNU8DbR+sTx7JxtjPI63GPJ854JuSKkwa5rziuMqNtHzc97jnSaTXni+yQPL+2k72NOndsczVvHzd5HpV+N5+G2M0hK90Z+c7rkseNttXHsq4nVRbkse08U+l31yeuP0q3b1vrWHJenD8wT/j/ZSDLuJ0mg1OeVdqjcmmuzdlvWD6n1/d2zfGT5Z631XZ38iDfhvZ8vE0i7VNm1HxN50eYXd28ySnTqflJ2DSZfzqNTjqGM6qtRsZq41wbm/Ra7UyiPbfvBU4epeyt7Rnlz8Uwtq0S1+WFrylZ3pLtYCK/TRlwbCjIt6u2VSI9vI99bPc+PDoXU66sOqDLVbJOxeus6wuxbeJa821o1vvzw6nDOeedJBdj78Xkf9z/A6mFfXit+Ld+9lRObgOcbJAtZAMVmtHucZyGThY6fZxkoU7C5zSF2LstF069TK73p91XGbzX471G07iwGRP2kdur8zvnyLiudINvn8tj+8Rxhl9H8qYsGGa3JIl0OWkehjyX2ddfluzj+Y4trzHDRu71u9eaeazAPLmsxibTvk56feXOLjuCYfmccf0S3/EM9rohNpR4juXk6ZQZNV9T+THMrom8ySyH0bJEHZ2ETb35569/eUytDsj0iuvLsKGBbRAvU3arbIjrtq7VZ+/csj4hxrbVOGmT+8TX7LaDhkS5kgyza2AZ4fxKnS+ciylXOfXOttcwew+17fCyGZ4fFonzTpKp1eMFwOhgHxN5Hd3p4Jhoo0hFPT8KpVuiCOlhZxXftZ4Ry5UYbizxoKZNh+pXrfV62FPCMUWvWkS1gloXDbOG47/GVSre0D+T3LybiEXVvB6IlK5RMRG/V7wupP2lkGO3JDfXZfx2Vw4jDRtWTAwxXxV5q9cEY4bF9SSHysakcj2ndM5cngwhI7355ORzzvGC6/Z5bPhs4A6lzhUj1B9mlDI9AZuO3G5dNjd3xJ09GccvrGzabj3JsJkIHS542KHKwV19/1APWqbqvQwLmWU6NMgNfZhAu2qRb1cfw+7Ds0e4xhjPtqPbMMlk8xRcPBMQzqfUfSoarNvrojkeAy3G9p4cCCFWodbbviLNBUvckOw3DPRFZXAQ+74yTyGbyXrARAfky0b5WXmEeFnFalE0t4eDRGysapz9rFJtv0WV+3v0+LlexIiGu0LHqcZx8HzyVUXeNIcyxG4O6gbV2OeYSh0nlvGAQ/9BgerUItHTVscUHZf8273Hls4bJfQ05iu6Os/TUc0RU8yTSdB/T9ysMhv/LHLyOeP6GX+59zBnNpwco9QfwShlegI2Hb3dmgVWZWyq3aGqOG+ZUFP0AN3rA9qsEbUOmkLEbOqYW9U5SNV70RkJaRUvhSvrVN0garyX7dgZvV3NJ9euKULuwzNIkMYY37aj2TDNpPMUXDznFM5ckVSmPxr7qX7tLajVhRCr0nrWDUcQew/Eefetnq5scDze3VBChEFU+WLBffpkk+qHOQ2HEOvbux1q3LdudL60Hj0UvdTsCh3MYZ02o/SpJ4djD4yHMey2+laVKvyARKkxvLN0oxitlz19/dsQ3+QER4+FLWMbKC/BZF5JlTqWsLfj6bvIPJkw/JBJ+X6TeqN0IIbls2d9/4F+6CdV7rnOex6AmyMbngvbOz5i/Rm5TE/Cpjnt1vbYbfZkMQ9Qxei2S7YvSkRnP2wtyuMWexG3qXZnh3qiva1vqQe30va2ts25z1we5sHfpGNHP9xnrmNIuxrGMLtmk3kfnlnCNcZQ2zpaYXwbpphInoJpMbJwdoclCtS+LXpb79aiTB8HKcbE/+ZW1nGU9zYKtVjZJNqye2X6NV3P3GHQ6Al3cbOJl7lCf/XOtryxlHld7hPXJdqxwz3EVKitUe9sR6/3U3o72XvktJr3X+s0lY6p9WoCr1/a7dH2c5M+5RnI7/kOsZsPeTPnH+7ro5KU7rnX2L3Fry10qRxUaWCGuYUQb/YtG/CQbX8tMQw+yps1LMSxTg4oPtZ+kU4cT8kF5sl5SQztl4m9PaO+mmpYPqevv0xGXCTLPdd5X2dshm04IWRdNk/VS6E3Yv0ZuUxPwqbZ7dasdGf4tYY9UeKiaxRtF7/H2LRdvP7k4Fi10dbEbx4wnQDTkZTtjnEgJOs9t/03RP2Z5Q/LcBlJ5Bfbg3TbGNKuhpJnVz+iPObeh2eX4RpjuG19WmF0G6aZZJ6C6bByxmMDCfr/5Rvyf+kHPiX/g3y4sHvMuLBIrycLuLFvQOy1VJ2uUYa0Lotly99lAfkaDmwVDmwVDmw1XWDvcP6v/mv6vu/7Pq8O9nqceUOIZuAn7F2jAAAAAADzyN998+NMHTyRt2pEJD6UkJpm+uXzIAh+KJCatI6vHgEAAABgyfCGaoDR4E4BzLi4IH8XE+RrOLBVOLBVOLDVdIG9w3n58iVdu3ZNz7msvHjxImXFnd/6dvqN3/gN+uqv/bReAgAAAAAA5hmh+fQvkAfrYObhP/ym/G/j9Ti/uf2h/P/B3hvyP8gHvbjFBvm7mCBfw4GtwoGtwoGtpgvsHU6eDp5sjDMAAAAAAAALCoQzAAAAAAAAAUA4AwAAAAAAEACEMxgR/njJaF9GAmPAX7vE6xsBAOCS4U+eT+aeJz8vj3Z97vEK53/zTz47g2/UUIJtxf5m/4IxXqVSlXqsT1HnYd7JPdFKfkFp9SBtmffpcBAEfyVy7DKQWYZMXTZTIp+S74OXn7eeMXzX5nzaP512VSbjdekbcVYbp+qNva9ts+RxeYrq2JA0XSaybNlpTTBsfZK5rvNOPln5r8tZvmjj8rFY90VfmV4uZ83i5em8wW/TYC3swyucf+KHv4O+/pVf03MzgGxU5ue7+NOlRDtnZxP/dPXp+23q7Dapedim7sQq78Wk1cfqnTadne2IM4LzULp3Rmfv1mjUHJOiZ4to+yBdY0+fbMrPrfPT3WdnJ9TaaFA5EnPihnG1Tmt9XsdTj5r3y1PpbIUjBO6WSKOoH2ma1JPp1pP5LL0QQJtPq3Sil58IuzRKlsgLaOOakU14SpTtjVZ0bJ7cOpaRpkvllAbPiCobFerUHnvELn+htCLW69kA5rbOszguNaz83abBlu6QXalRWyzbWcYPTtllut8U9QVCEkyP9R/8WGphH/MRqnFzR1SeNtWu6PklQ4oQ20skvRCmEUmEThhPWLKXnrXcyyl1n3aoeWuH1nc71H4/W7SwZ4BFjfEOmWPbHoNY9Lhpzdo3Js8zyT1yMW9fV9L7N1Fv+UWQ8CTmpdfnkXLKgUZup+2UmedsV7HfkVmvtlf50Y9sHuWjXfZ86fBgBHdRz9uwwImF3Sqt3xZS8dlAXTt/mVLcMO9GQqFEd4XI7DztzkxesvCv3+jRzi29IAQWQFYHZPWtqhDIxzQw9lvWNu72tuw4dZ16zzbeo8buNm3f0AsEsiw6dUTVH7s9cdYnyr/bDqXL/+VSoWKU9yXaicqK63mU1xhdk0i3rI9lalCH6lfda7HbVecaeR9Rp+1jSdvYddsZlUi0w6l7UbzObb8nyM110f3rxPVlrDQl2lvnGl1s21WfDPTSmEzbJnHS8pC6erHBOY4puzl56ua/a+9U2dDLweRBjPNCIRoT9oRZninlqRANxtUBbTu997zK3qX2ofqsdumWaK68HqGYTq1A3Vvq2MqTtkKF59vRuTq1zUyBld7XpIsbxoIUKPI4YurtNqjs3DjF/BbRI7m+R83DOm1GN8dZhxvxMh0fWJ5XqlPB15hz47tftLyVRHX2SF1Zp+qG27Hpv9cg2l0Xt95heS4a5ZJZH3vpOrUyDbbUPikvV1Y69OpxGTzvEN0oSqFwOjiOfhtWi2tEhwNK374ugz49rhG13s7ya4oyGd28sjsW9HogcmDNEkvD4XplboyxCNSIsl+Izpus24FpuhSKsuPU2LfL0TAbh8Dl32oLX7WInHbIX/4vBV2P61eHiB1R/zZra9bogUi37HCJtk8I79ar+FpYRJWfxR5b2Xbabcv9Mm3SI3Uc2UYXaMXUbWGrilhvRFn/QSFqE8wIkFqXdb+5ALhDLa6S70nM6Gni+4nd3tr7JBDCtXw/HqXZfl4X544ZatsIlRYy53xVpHZNtHUaPs7edbf9l/evnDwt2Plve+F9ZUOeBVwEXuH8c50/pc/+g3+p58C80XgvWYk5RMKqSFeKrrcrQf+dOnWk+BLInn7aI+Sw24saTOVJE42OGQ5OeQoSpPbV6dLiPTqOoPS2aNCd0BHRsOwbz0yJ1nfF7fD5bMiroWjP6iPL81rbaoobWjd980x6KyMhqby1sTeWh7eJmrfYZsPzvNn3NK5WfqTITMc5EA3+3n2Rj1okSRE9w/Qf8M33kd8zLG945sbFN9QsMSRuqPsNqhzcTdvfiwpxio6thY656asQBbNeh76YDmZwmi6P1TvbbkiYrBtVWj+P9z05ciHK7nZi9Mxb/i8FUfff1QJsaOdmSFss0SOGW3FdlW2n3bbYbY9so622VAp5ouOBshWPHsVtQpGK1jomfb+ZEHZnsGQcAoqR06TvJ9tRe6tGsnxpZ+eDXTdL91jEGgJsa0ieU5TBR+KchuTIW/FG3v1Ln9cuszfvirpul+mQsgFC2fudT0ot7MMrnH+193X6zN95W8+B+YEbYHHjfFZWjY3tnbWH4a4KYawXp7HFF6ME6YU1jjZC3AkpppAeuQT2eg/F6/MTAS89q0mkuPXjDMPxTUQjOxtGdCTFQnCeh5OVjvEwXsE4RCEzDzfEzVH/vDTYE/XM7uzko2646Q4qe8t4JGXsWH8hhnuiTtpCIUa0AfvcwfR3aLLSdLlwGyME/TvcxqhOhS1MxkHWL8cLv0Jl0a7NMjK8SXRu5EjOVY945o7rqxYd65GH1KhDhMj7Q9FmWyMU56v/PDpmjiXKrji2Iud+MwlEW2a8urJDyOeJPLsjpkneT+yRlxUqWN7fGBV7n80ItvXdwxzYCx4fJ798qvO6KLEtCS4bIJT2l79NamEfCNVYOJT3whn65yH20rEe9hETD8XprVPIITG3YZAV2tejvkh8IlI0RB65OZdIb22SrIZWCLbkEF2E5UmTnpLb60pwjJLnoeSlY2T4xqeGTlMebhPvrPGFb1wGMgwm6QWT8xkeQk955ZhGOcx7rgf0htzc827YM1qHIq/d0WMhguIh+XGR9csRXmqaxoPJ50V64EUOejs3LJD4WkR9JmvUwUV5YN2HSXkax8OeDHEQ9xXngU3P/eZCsJ+FGCNN8n6SeEiWp1Q9tMSolxFsm+MIYUwH2hyDO8PZqPO6JNqBoLIBJgGE8xwgvXCRcBWNxlaI90A1AJXrRX0jjeMp5Rsz1M8EytvDw/Vuo8BeqgbtTbMXK73L7jllCMl5h3BnBW5Uheh6HDVuxvbxcKRBCkfL4yoFnIWMQ3+6KUMeqm9pYRCc5+EMS0cwLOqFaCZx80kKGeVBt+3C8a78oOp5hOZkMB7BaOKOgxRnymPef+AKaLe88s1eiGYSdcsKdwlCdFgcD5IUlyav+bh26IVbjvLTNEPI8IAGlUVnJCuERYUGxSEdHDaTWQJT9Wt24VEcN3/ZeTGk8yDbR/uBQltoq7bfjRsfF+XpXCuadoXDD9RPF+t+cyGoUAXVgR4jTZ77SRZ8v7Wf63HL2Qi2TZ5TxiGbVli/VSaylxrpdRmSp047YJEqG2DSzIdwNkPOckiEY/TY45MXBzbH2B4tMXGDunrnkYpblMv4oQg75srGHr5Sni05rCyHduNhqsLzNf/+sgGK401jLuPNBhzX2aM1fmjFup6TUUXHrJIYWpPDjex98HgiZf6z50TbYU/knuPJ4BjFQ1EzbEEUmucjMDQdFuZpcTkcasq0HjaV4k38d4Y7xSQ9JGwX+dCLWZ7hlZ5BSrfWdNukJqe8ypuc+H9fDyGbyXjo8to4kb92PViRIwkmvIU9ccfWELRbjnLTNFOsqhh/UaJSQsAgy7SxjSh/13sJT6NFqn6paRa9cFyvqk+T+evxYJoyIic71l7H68prVZ0o7uT1brj3kvFCKUQ7bNfHqwNaizyjGfebSeHcC+1yPU6a0vcTnnwhDRx7bLed3VuuRzvctuKc2vsrt+EH2aNROlHe9611K3uis2u3pgF5arcDmWUDXAQrZ+w6SfDm9ofy/wd7b8j/IB8urB4zggUB+buYIF/DmQdbybcO8LuyL7ljgHIVDmw1XWDvcPJ0sNfj/AuVv0Z/8n//b3oOAAAAmANmIBYeADD/bP/ot6QW9uH1ODPomYQDWy02yN/FBPkazmzbSj1o2iB+7+3lf0QG5Soc2Gq6wN7hvHz5kq5du6bnXCCcJwBstdggfxcT5Gs4sFU4sFU4sNV0gb3DyRXOL1688Frx85//vP4FAAAAAADmHaH59C8wLl6P8/5vf41+/ud/nv6096/0EpAHenGLDfJ3MUG+hgNbhQNbhQNbTRfYO5wvHf4Bffazn6WtH/uMXhKDt2pMABTGxQb5u5ggX8OBrcKBrcKBraYL7B3OyG/VAAAAAAAAALhAOAMAAAAAABAAhPO84nwpSE3T/yqW+owwvok/R8jPXS/oVzfBbMJt1VhfrRuDaZ4LALCUzIlwdj+jiYZR2KPUoGb/TMYrnZ25nwSdDRJ5NmK+8VfAzKdGF4vz2WW+UB0r51od0Z5cn8hvKfKt9ebz1LOKpzMbp9mT79b1qvLuro8/B3yefcFc4JQdq47oOpDvnODysWCd4VRdWqbOvqrvqMOzi1c481OEf9bf03OXT/9BWfwxIrFHzcM6bS59oapQcQ6+Re+Ie6pTIVD8rN5pi312qKTnF41x7TKPVA5O9LXyFH+g4vTJJrVvm3Xc+WtQ2RaaV+u0Ztf7++U5uJk0qRddq5juuSU4zneeEuV7o0Un1r7tO+438M6zL5hhWBw7jpBtGmzpzvSVGrXFsp2bcsul4XRw7JTpkwOi+tVlEc8l2kEdvnTu/si3vG/UYLzC+Wd/7Lvpz3qzI5xL9+yGo0Tru0Sd5wM9v2TInjh/JasjGhLRE8/wVia9ULHHgr18ogE6Mt487blKePccgZJYN15oxiqt364QPRuo9Mpjug1h/4E4vhFO9pBryvuwSJ7ohF2kt0Fcn7lmbQNpG3P9dp7zdsJmdn674tL16j58Xy/WuOXEsmtmedDl57XtBR0vP7hzFN8cEnY46lJD3DjvWvX+7kGFOk+78bWDuWKQWUYD2qtUebPLdVpQ2eeyRyr4PNUn/Whfcx6nfl1K+2I7QoRweremPx3O1x1fX6q+Ju8HVtozrymrzbDbWctmKg/McRLrJnJvGM7qnW3RJe3QQNrB30aq5XFa3HtjYp2clE28ZSLzusYoj7Zdk+uc85h16liOLZ1jXEx7DFx+6kf+SmphH3MY43xKg2eimble1PNLxs0d0QPviUaEPy8reuNRAxvDDUGhthZ7vvpNapTsCisa2dKAtuV69lyJSmd79161iGqbenteZ7Y1xxqnYp5S92mHKrfXU+kdirxmdf6e6DTR7rpI86Lgs0uDyvtF5W0R+UsiP/euW55ZSoy43C/TJj2K8qcT5R2XhU2xtfHcnFDxaV3kvkY02pt2OYm8mHnlgeGbdJfW9TFdT3GaTq0QN/o52w2ei5TdKEo7SI+T/m1YLa4RHQ5otrvMwhbRDSxxkxQ0SmZdWjzSYZ0K0b7pOnaefS8dkb69zDIa0F4ly9tKgQZbavverlhvPLSMfS5RdiuiftgipFMrR/uyQ4bPX34Wezd7u/nleeJcWafqBl/jkHzz1dfk/UDX4aHXlGozRB01bU7CZv0Hsa3NyI9aJ0Tblj0qNE3PuLgeq41c5TZLdCCOo9EtdySPR62jdXx9cmQoHrVxy8Swe94I5ZGFsUmnmKTnPCqryXa2Su13PCWARXPpWOcvb8ftccEq0570TLP8LiMiI7zkrLpc+k2RtuaZaDxmhunbqncmGsozUZE0J2etDTpr9pO/DWpZ5UBUX996tulGS6yJEQJVb5/gVeusEp3bdy4Dp5GkbczkbOccR8HnpF2ds540qX2mn/eTzd+0XUQ30LJDMm/T5NtJHT+zLNh2l789+ZdbHtLHPDmopPPKhz7f8HKVuEbDhOv+ZPM1jbyGrPTKa/HYXqJsnGnT8+w7Juey1ahlVC/LLW922bDLRepcbllK7es7/znbmXFtpcoLTxntQVZ9tbeRDLkmb36k9/fWU2ed+p2qpyOQZatkmyLnozxJplfgyfe4XCTt4e6fLhMJnLYpbdvc8pjEXudLs8Q9R9z2xsRlOiM93uNefJu3SPBXtbPwepx/tfd1+szfeVvPzRDce5M9r7inCJIMaHCof0asUvGG/ulBevccj9UKle/rlYw9TCR6yJHHMgBRobmmip52ZUxPtUF5N+jg7kLkvbGLnPprlB+/Zw8DJvImRZGK0YOivrJgwfGTr1p0rD2Zxos5tDwkkJ7gEMT5HnG4RSrMynhe4vjn4nUhEXxsiOvTP2ed0j32BB7r4eUEN3fk6MnxIOE5lqxSbb9FlSzv+nn2nQmGldH89mpUMsuSRJ3f9uaP2sZNCg5JVG1lRjxvRn1NM+lrYm+uOVaB6lF+ibL27gm1npXVOic0YgJYbZAakci+78s2K8mVIqmcV+Upqi8cBkZr+c8IneOel4S9/9GxSg29NCPNKdQIe5K8Mh3cHoNc2l/+NqmFfXiF8891/pQ++w/+pZ6bEVg0J26uwId9UzL4K59BVrTEw0U8yfjTqLOil8thrtFZvfNIDiHtZTb2+ZiQg0eL+MDEzXUrfi8ND5XWb/SifGHRFIavLCTQDx9xvprhv9zycE5kOIZDPMSaGuaN4r4VvvCNmeb1QMjmLPLrJO+bfbM+z76zxujt1aiky5yNOr/TkZXT5Tln3HjeBJ76mmaS18Sd9kQIhJNfLJ718kk/5Oy0Qflp94rFqB6o8hSFjMkHMXOON6F7nkQI8GQYkiFM4Po7kfllGkyCvd/5pNTCPuYjxpl7f1fbVBUFedmeLh4dVdEa+1bv/+gx1Q8rVH0rQ3Jwz1z07h/7GmHZ+MS989P322PelNXDX9HDXeKca+JI7feNF+BhtldTNGSbNaLWfjqeeyGQHpCst6SoRj+O6e9TN9fjbJMsC8pr780/mR86DXnlYRT4BmTfSMX8nkh785a+ZfF6IZr5jTlJUb76VjWRhj49rnXifWeQ/gPXS9h/R9h6o0rrbFNRvh0PoVMnWZzYozFifr8Rx/KfZ9+ZZ4z2ahii3ETPACTLXArP+acMeyTd/OX2oEnrefc6u75KbKE9yWtS3uu1os6L111qp0YIGHXOS3v2KNVm2fWAr8F9202ujpjYPU/sy519a5Ss/17scU6lOdleati73Kk9juv40DINLpo5EM66Aoiiq54aNlPe0PZyw0N+vRvWULvsPed46hNDgGaS3gw5LMwPP6hlhedrokkfD+lJiRqKEu2Yh1L42PtF6h34+/Wq4bLzf/7z3hlGzc0fNfTO3iW1/Z64GYT7P0r3tCdI7rtJtM/hAxrukJo0SK/vI5WGvPIwCvzQkxnG5UmOGMU3LSksxX/HFuY8nAb5UI5ZnuGVniFKtzjkJr4O+XCWeXj35jqtRXkoJifPuVN5bD1UqEcYzKvszrPvHDByezWM3R5tP9f2EmWOhpSb1Pl5mnTYQQ48Gld9msxfj0c0q76KLfmNM6quqE7U5K5JtdNRPbw6oLVoxMsO4VDl/dJGBFNtll0P+BrIqiM85dxDJnrPe2S1vyu0J44Utd7JNo6dg2+n6y2/fejkwKrjiXYUTJ8V0fvigHGHN7c/lP8/2HtD/gf5cGH2mBEsCMjfxQT5Gg5sFQ5sFc5UbMWeXDlibXXGuBPCb7vwvJVqkUHZDCdPB8/h6+gAAAAAAAJIhF4wYQ/mAeDHK5x/svyd9LX/5x09BwAAAAAwh9zccUMdxFR4Wl06bzMYjeoX/kpqYR/eUA0GLv1wYKvFBvm7mCBfw4GtwoGtwoGtpgvsHc7Lly/p2rVres5lhV/yrH87fP7zn9e/AAAAAADAvCM0n/4FxgUe5wkAWy02yN/FBPkaDmwVDmwVDmw1XWDvcPI8zt4Y51//vf9G3/m3/5GeAwAAAAAAYDno/v4npBb2gdfRTQD04hYb5O9ignwNB7YKB7YKB7aaLrB3OHgdHQAAAAAAAOcEwnlecb4ipaaRv+x2bvhzv5dxXjA28jPX+OommCLcVk3rS3zTPBcAAv5kOsrccjEnwtn9tCcKqbBHqUHNvvn2/gm1NvSqmSGRZyPmm2yM9OdjF4vz2WW+UB0r51od0Z5cn8hvKfKt9Q9mvDR4OrNxmj35bl2vKu/u+uoTUyrOsy+YC5yyY9URXQfynRNcPtAZDsfXLi3ivQZcFHMhnPsPyuKPEYk9ah7WaXPpbwwV50tIs4oj7vmb/YHih7/Pf3a2Q+kv9y8G49plHqkcnOhr5Sn+7O3pk01q3zbruPPXoLItNK/Wac2u9/fLcyAIm9SLrlVM99wSHOc7T4nyvdGiE2vf9h338wzn2RfMMCyOHUfINg22dGf6So3aYtnOTbklmCB2u9TbFW0PvMYgEK9w/okf/g76+ld+Tc9dPqV7dsNRovVdos7zgZ5fMqRnokwN6lD9qugpZ1T2pBcq9lhwb7tKB0fGm6d72gnvniNQEuvGC81YpfXbFaJnA5VeeUzXS9J/II5vhJM95Jry5C2SdyBhF+k9EtdnrlnbQNrGXL+d57ydsJmd3664dL0rD9/XizVuObHsmlkedPl5bXtBx8sP7hzFAi9hh6MuNYQYvGvV+7sHFeo87cbXDuaKQWYZDWivUuXNLtdpb6t9Lnukgs9TfdKP9jXncerXpbQvtiOkRDvRV+1cb3KqvibvB1baM68pq82w21nLZioPzHES6yZyb7h8SreaRIcDilRF8P3wIXX14ohhbWfy3gtmkvUf/FhqYS+it+UlZ9Ulc3LW2qAz0VvU85fP9G3VO2tS5az1Ss9qmzT7eu6gItLUFFtp+k0xb7ZX2zrr5fHi/c9etc4q0fa8LnksM++e1yVxzGS+OedQ9HZFunb1mfg8Gy2xl4uzzZSYbP4OsYteb18752e8PrG9zI/kfGxXWRaiY5m81+tlHtjlwJBXHswx3DLgzxOzrTXl5J2dtzLdyW2dsnd+JpuvAp0X8WSXb52v1hTnqb5eZ719nefZdzLwcccmpIzaaXbWZ5Q3cTxTPmW5MWU8eS5ZduNtja3i+qeXWfXtvG3M6LZKXqMN531IfbXL2pBr8uaHZcOEzXjf2F5226DSbdtyVEa31SRQ6bbrkJvn9jUKPO1fsnzFth6+70XUz1Aux97zCX8cMItMK86sgWUlv7yC52P6tko2lHYD5mvM7MruWc82tRpZhhsSu2GJ8DQE7rkMqgGRDbKenO2c4yhSjXsiTWqf6ef9ZPM3bZe0wHLtkiTfTnbD7ckf2+7ytyf/cstD+pjJm3Qm+nzDy1XiGg0TrvuTzdc08hqy0iuvxWN7ibJxpk3Ps++YnMtWo5ZRvSy3vNllwy4XqXO5ZSm1r+/852xnxrWVKi88ZbQHWfXV3kYy5Jq8+ZHe31tPnXXqd6qejsC5ytXY6HRLW6vJudaMMiS38ZQNp/3L21efN51/0+Ny7D2f5Ann+XqrBg+BlI6p9WpxY1/Pz4AGh/pnxCoVb+ifHk4Hx0SHdSpYw0vl+3olYw/hXa1TRy8OQTQSXFNJNC7UKJ1naOqUDrbqRAd3FyLvjV3k1F+j+tX0cHOMO1Tq5E2KIhWjB0V9ZcGC4ydftei4pI5rhhSHlocEq8U1/WsI4nyPONwiFWZl4pnj+OfidSERfGyI69M/Z53SvR416ZgGvny9uUPihkrHAzdkQbFKtf0WVeyhY5vz7DsTDCuj+e3VqGSWJYk6f0PXATmN2MZNCg5JVG0l+duDjPqaZtLXZIfJFKge5Zcoa++eUOtZWa2bsxhhIWZ1+9ukTm0zDofJa/9eD3LtOGrbCeYTr3Du/Zdv0KeulvXcjMCiOXFzBT7sm5LhlAbP9E8PUvgkHi7iScafRp0VvVw03Hm3oSxW7zySD3/tZTb2+fCDZHVq0aNFfOjp5roQWB2/wBL0H4ib1Y1elC8smsLwlYUE+uEjzleqFWSMYm55OCeD58nbDt+Uy3QsbmKpB6CiuG+FvCndKIrb9ZwgbrIixRnk18n8G/R59p01Rm+vRiVd5mzU+Z2OrJwuzzmzemc7uz3w1Nc0k7wm7rSr+qmOkXyDE4tnvXxeH3KWHdEO1d9Rac9t/64Uc+9/F9l2guly/MEnpBb24RXOG//6q/Q3vjhDTS97PK+2qSrEG54uHoby1jT27QfIHlP9sELVtzIqLzcGopf82NcIy5vwWvTgyun77TFvyurhr+jhLnHONXGk9vs6lSKPM3vmQrxv1oha++aBmQWDH4TLfEuKEhGV68bP2qdusAcjWRaU196bfzI/dBryysMocKcr8SDRnkh785a+ffN6IZr5jTnJG8vqW9VEGvr0uNaJ951B+g9cL2H/HWHrjSqts01F+XY8hE6dZHFij8aI+f0G0e66Ejrn2XfmGaO9GoYoN9Fbl5JlLoXn/FNGPbBo5y+3B01az7vX2fVVYgvtSV6T8l6vFXVevO5SOzVCwKhzxu3UfCEfDrzfVfUor/2TdrccQPLeZLWok2o7waWz2f52qYV9zEGohr4RiIZBPTVspryh7eWGh/x6N6zhIukxzvHUJ4YAzSS9GbI33qCyXlZ4viaa9PGQnpSoUSnRjhwiK6jz7Repd+Dvyyuxbuf//Oe9M4yamz9q6J29S2r7PSGKwn3+pXvaEyT33STa5/ABjR2CI72+j1Qa8srDKFxZp6oZxuVJjhjFnV8pLMV/xxbmPJwGUT7idRle6RmidItDbuLrKD9r0Yl5O8LNdVqL8lBMTp5zp/I4qmNyOJxHGMyr7M6z7xwwcns1jN0ebT/X9hJljoaUm9T5eZpi2AGPxlWfJvPX4x3Oqq9iS37jjKorqhM1uWtS7XRUD68OaC0a8bJDOFR5n9sRwZt34xHR3PZP2EN7++XyLaJHwj4Rk2o7wUyzcsbjCAnyvtEN0nDF8JgRLAjI38UE+RoObBUObBUObDVdYO9w8nTwfD0cCAAAAAAAwCUB4QwAAAAAAEAAXuFc/oFP0Tde9fQcAAAAAAAAy8Hamx9LLexjhV/yrH87fP7zn9e/AAAAAADAvCM0n/4FxsX7cCCDIPJwYKvFBvm7mCBfw4GtwoGtwoGtpgvsHc7Lly/p2rVres4FMc4AAAAAAAAE4BXOX/nwr+iTn/shPQcAAAAAAMByMPjjT0gt7APvcZ4AGP5YbJC/iwnyNRzYKhzYKhzYarrA3uHgPc5ggeBPDONLTJOCP/c7za+kAQAuBtRlAKbDnAhn99Oei9g49B9Y1yemuRWGrw+oOuE8kjcE/SnZZWeitjh6SIWn1fiz0OfBfA74gZsyt1wnPpVuyoqZEvvOAyo/4mtI1tvs61cdwHhdRp766pPz6WU9JWw3LF2zgLFNlT9z7GHY+iSL304k7oNy0mVKlJPN2hr18uqyLkvL43TItldIWZl0eZLH0/VYlm1feyfzKNFOgpljLoRz/0FZ/DmTQwxnZz1qHtZpM7AxnX3UDbRMPX196hqpNJ83gNP329TZbYo8alN3QpV/9U5b2GSHSnp+mZmoLW7u0NkkRDPfoErH1Nyt6HkF3yjKz1p0osv1yQFR/aop12Kfq3Vas+v1/XKwSJoJWKxwxyO6vgo1rHqbd/2nTzapfftEX/sJtTYaVE7dSEXbsCVsJOpTmib19HHldC8uEXxe2SGy1u/c1CtnhlMaPCOqbFSoU3sc2SymT937FbFezwawLO1EM6ozPLWpdkUsvFKj9rBrl9vMYlm4WHz2CikrF1meSrdEnb7fTZV7ef/cqNI65ymYWeZCOJfu2ZW9ROu7+ucCwDfQOombq3Xj42vciSpswjNl31zZ8yTmHc+MXqZ6y4nlvmMIXK+YJdizjpXJKXWfdqh5a0fkUYfa7ye2zfSUKc+A7QmR5zReNt4v04OdbR8+RvVJP1o/H54WtoXIA+NplFMiTyJb8LWzd8L2rCS2jZbb6xI2s/fxnT/T9gru2B4fPKK71/UCiS4LW7EwX72zLeReg7qcD0ddamy06K5Vr+8K4dl52s0910zBQsTqeKy+VaW465B//XxTbt+J1tD6bbfTwci24UaPdm7pBUH06XGNqLU/iQ7RFLi9LTsNskxYnD7Zo8buNm3f0AsETpsgcduN1HqnDtltl643R2a9Xf7nlEQbabfZ8fWxvWxvpt1u2O1jzj1nUUjYy7kHmuWp+06GvRLlLOg+c3M9bgsj0m0GmE28wvlvv/Ft9K2P/rOemzFEId27X6HqW4tRtAbPO1S5vZ5ZUfoPCjTYMr1l5ZVzKqaY37uuPFfRjVgs26RHap9+kzq1Aq3sF5UH6lWLKtYxuIG1vWK93YTnK3WszexhpNddah82aV2IIe5Ru54k0eiUjqn1Sp2HvXO023M8ZeMwzD6dWjlaPz+eFpEHW0SP5DV58sShQ/WrXVqX2yY8l+xRjo4h5nfXhTzlm2JBCrJ4ndjHuUHY5x8ywiPrY5O2IxFoGNDgsEJFx3NSpOIG0fHglE4Hx0Q3ik65Xy2uER2K/fT8vNF/p04daWMm//pdWOxyh9OuC1oAv51VP0QeRTdrSwzJDsmaKPPxjXy2hWFRdhoa+65Ayb/2EER7Y49oiHaPnLZL1JvSgLZlGV8wL7WokzJsQ9dv//VxO8AdXjPq0SPSeTD0nrNoCIFs3wP9o3BZ9uJyZsqRmMQ90h51ykY5Cpxyb90/weVT/OsfSy3swyuc/8P/+jfoD3/l7+u5WcDq6cnGUA9PzT1quDIP19vuufFutOhRUrTYy2TPthJ7oK6sUzU6RrqHW3qbhbU1hJQ6VocGGcLZEQ7JHvXrAR3TWiQkpEh6NogbjTEZah8hzudvaNLKL0HWsJ6h2Tc3Ru25TNpVi9sed1J04yx/a2SeO6E19vnVCE/nuU/OipsJhxJE57eQ+Z0NdxgXAduzJ2++xq5Drl/diI2wVTdku5waL763nbM6RDz1drnzZN2sD4+puG/WZ4WBzA7SE2+XPyn+zzlcnRzRuFKj7cQoWFxv5otGyZQbMTkdXpu0F99BtwNxh7dEO1owDm1T54wgew0LLcy0lz06LLhSFK3nceY90kaOUFnnVWGOpuMNLpuDf/xNqYV9zMnDgVw44xtBcT+vwVg07OGhAtUP9eKJwF6xRMMiOibZkkY1on44JlHcjCKvmRJcjff0DVs0KGtWg9J/r5HyOI7HRdpnRpCNcRiyQ+KgxC0d3FUNshB0qfyVeZNN8br/7FEoga9jknPMteJq5jFpQ5Qx/XMeUHGQum3aGlBBlEPpnRty/dzJqb1r2rQz2n5eEOVXi1/tAUt1iDMo3euJTqp9s447qHweb2dqpuC2Qoj/d/jqRXndb5x7uFqOaBzWZX6Ytq0s2qdFwInZ9XlHOYToVYuOdbvuDa/ztQMRi9WmDrUXd0T7a6Lzqa7Z613PsxeHdBh75d4/E0gnlunMmTBHyOZ5YE6Es4244Ww153pIN0bd1LLjOpPDQ+w90qsmghLC7sMTPI3hiWEPj/hni3B5ozKeUumBY8+YWed6Pcfjou0zI+Te5PIxMfSRCPOJcJk3o6Iaeg7lMfldqJl54/1Mjk4kwhcSYs4XvjFX3Lwry1/snRty/RbS66/Fr+xU2qKvZOYznra380/mb5jHa5aIRrqOHguhdv7hatmB3LCG3/UUx5UvOPpBQBWiUkiLQV87IFmSNjWJGcWRoRaeepZlL45vtkIQZSikXjUc6/4/oXIPpoNXOH/0tY/pE9/1OT132XBFdmOG5I1lzjxTWahhSnFTdIZSucfP16w8wspDJZDDRernZFil4g0hdp34wnFQXiIZsywbWzOxJ6xBe+zxYPHnrLfFuRLwkXdaxuiFSMWLts9lIToYWyZPjG3HGMKTdkw8KCY9oTpPNDLEZuShcddjylMUty7zVo84WGVLPvClz6OGKev0OLqh++J8Z5yjh643T5c/VR7zr7//wL05y2Fa7SnmoXLbrnwzVyJQhagl93XyT+avHZKg7Jr3HMVMIL1vDSqLTkLFjI4kUDHw8dA2h7OImuGHhY5TvpYUWR48nbVUOyDuOXIUd1Hb1EC43Oh66JBlL+nUiLdX9TgcE6a0Kdr4rHIPLoevfl1pYR9e4fyFL/0Rrf6z/1fPXTbsYSbrQRgdS+gN4J9HOAxFPYBhro9jHknG34l1sgesl18d0Bo/5DVB+Cbdu+EOaY4cBiMb14rnYR7rTQmiR98j+xrt84g83mePk17PD1uwWBjKxdvnchC2vK2G/eVQaeqtK2GoRjz28quHyFR5W+MHRuWyi6tPpXsnIuVx2SrY75llj5idd54435nn5l2qPo3tqJ6/iOND866/9HaV2lG+6HWBIz2lW/GwMk9u/on81V5GtV7ZdfY9rXokUZT9zAe/uQ2R8dzquveu97K9oYlwBTMt9ENuBjt0QOa/L1Y+XU5IhscsapuajfMGElmHffUww16yTMYP6haer1HInStGhSl1xP1zUV54sCj8+C9/WmphH/jk9gTgCuMxI7Dgxin5sQ1+BRC/EWTWb+rTzV8ebdij4qtFeQB2dkG9DWcebOVrYy4DlKtwYKvpAnuHg09ug0tHvkXBiV8d/kYRAAAYiXmOkQcAzAUQzmAqyGHrZ3aoRkF+OW1pHtYBAFwQ6i0QhXO/+xkAAIaDUI0JgOGPxQb5u5ggX8OBrcKBrcKBraYL7B1Ong5eefHiRcqKHBT90Ucf0em//u/1EgAAAAAAMM8Izad/gTxYBzO/+dN/Kf/beD3OzMuXL+natWt6DuQBWy02yN/FBPkaDmwVDmwVDmw1XWDvcPJshRhnAAAAAAAAAoBwBgAAAAAAIAAIZwAAAAAAAALwCmd+mrD0iyowGgAAAAAAgGWBNbB5s0YSeJwBAAAAAAAIAMIZAAAAAACAACCcAQAAAAAACADCGQAAAAAAgAAgnAEAAAAAAAjAK5z529z9n0l/ZhAAAAAAAIBFhjUwa2Ef8DgDAAAAAAAQAIQzAAAAAAAAAUA4AwAAAAAAEIBXOH/hS39EP/7Ln9JzAAAAAAAALAesgb/wpT/Ucy5e4fzR1z6mr359Rc8BAAAAAACwHLAG/uhrZ3rOBaEaAAAAAAAABADhDAAAAAAAQAArL168SPmiS7/4afkf73IGAAAAAADLRJ4OXjkT6N8Rb25/KP9nvfwZuLx8+ZKuXbum58CigfxdTJCv4cBW4cBW4cBW0wX2DidPB3tDNb78L76PfvOnv6HnAAAAAAAAWA5YA7MW9uEVzp/7zAp973f6nyYEAAAAAABgUWENzFrYBx4OBAAAAAAAIAAIZwAAAAAAAALwCuf1vY+o3sKXAwEAAAAAwHLBGpi1sA+vcP7Pp9+i//oRvhwIAAAAAACWC9bArIV9IFQDAAAAAACAACCcAQAAAAAACADCGQAAAAAAgAAgnAEAAAAAAAjAK5y725+jVh1fDgQAAAAAAMsFa2DWwj68wvmHVj9J3/85fDkQAAAAAAAsF6yBWQv7QKgGAAAAAAAAAUA4AwAAAAAAEMDKixcvUjEZ/7z97fL/L1W/Kf8DAAAAAACwDOTp4JUzgf4d8eb2h/L/B3tvyP8ALDMvX76ka9eu6TmwKCBfw4GtwoGtwoGtpgvsHU6eDkaoBgAAAAAAAAFAOAMAAAAAABAAhPOC0X+wQisrVTp4LWZeH1D1QV+tAAAAAAAA52LuhfPpkyqtzIg4vPy09Kn7rEUnr6rU3jqg09cD6ug1IJCjh7TyRWE7PQsAAAAAYPAK53//z743+40a7MVcWRlZXEhRyftZ08MjvXJCqHM8FPJx1jilgy+6185T9YltwT49TC0bESGUj/n/lRo9ut2mQumYWm+X5KpFhr3s57IbAAAAAICGNTBrYR9e4Vz6gU/R333zYz0XI8MAtoi2Dyp6yYhstOjk7Iz4RR5n/SY1SjqkYEKs3mmLY+/QrErFysGJunaeXrWIagXLQ12iHbG8fWdVz4+BEMztd2vER1C2aFPtiloFAAAAAACGwxqYtbCPkUI1SveE4BPCrKjnz8XNdWpShwaRcFYe18gj64Q8JDy2WeEQ9jC78YxHUyzSVRywnmzPOe8vjm3W+72YeekcARa5QjxX7u/pdKlrjLzwifTH3vns87PHndNsX5/r1U96vvO88+557OMkRw/idXx8trO9r3sOZ1/b9onrjW3vO6bJS7WsfJ+ow50Q8VumRR7L7ZRJm0S2CixPAAAAAAAWlxfjfNSlhpDO6zd5hoVMmY4jj2yPmvfLkSDrPyjQYEt7ahPrMmFhqr27J+wh36jS+hUl3Paum/OcUIvqtGkLZHFssz7t/c1P58hcWafqRofa7ycFujjPVp3W+uaaz2gnwE4MC8juLbUPX3ejZIQr71ug+o1edMzeboPK3pCb9HloX23H9ivU1qinj5EeOehQ/WqX1uV6Yd8NcQ4jTEXHxN735HabHsu0CwF81bpe6Y3fzDgmXxdRnWO4tZe+txt785Wd8hmrPAEAAABg6fEK53/67/4/2vmtT+q5CXJYp4Lx8u0X6cSEVbzuUvuwSduRUC3RXRZ97ynBxZ7uWBAVqbhBdDxIyz0/fXpcI2rtxyEMsSBepeINIcueD/S8YKNFj7LCJYakc3TU+bNIHTfk/Lu9yFarb1WpQsfKq6/37d2LA1lKb7eoctimruWZlXjOsyNDQE6p+7RDzb4VDnPzrhDHrviP16/S+m3RaXk2kKK7/15DCNy70b6cFzKt3IkSdr9r8lh0erZ3s46pr8uX7kDOV54AAAAAsMiwBmYt7MMrnH/99/6Sur//bXouBHdYP/NBrSjGuUdNIaIjT698+0ODytYxCjX7fRD28QtUP9SLA+g/KFNjd9uK9WVvanweHuYPZmg6R+WUBs/0T4dVqr17Qq1nZXWeKPxkxPNfKdKa/qn2TWCvt/FtKxnQIGX7fPG/WjRnyLpWsWZw7HaqxJSbL1npDmb88gQAAACAxYY1MGthHxMK1VBD5mroO+QBN7F9v0md2mMhYQRCCFWoGQ//m0l6R5NhAzz8zzsFcPRQCDDXy8rD9G64gl4RQm46x0B6ditUfctnLxbPfHwVTlLgcIfznF/um0AIZPkWjiS+bSXKO+uSLYhdsgW2FNf2g6N6yixHWekO4hzlCQAAAABLzeXFOMuHAxvU5dhSIdTWxO89r6daeTnXilpESbGpfubTp4elhhtWoEVe5bp5vLFP3VE8zrnpHBUV19txvOE+lOCUaT7P+T379t8R59ex3w6pbUVapddbpaWh450lR4+pnin+XYrXK3FnScDx0jK2WJyvcljX8c5+4lhtf7qdcBuZfivUQ3ag1M/xyxMAAAAAlp2RhLN5W4MMDzBD696Hy0LQ8blShLHHukdr+s0IZlIhH8o73Sjp5VcHtBbiJZYPH7Lgio/38GiVavv6NXBy2R7R7iiv1stL53DMmx/UVBYGzfIW26EEK1R+ZuKuz3P+9L583BP9+joXsa15XZ7cVqR1S23H8cG9G1ZYBb8r+lXYa+84plk+kKj3LTytqrhm/YaRYyuveLIf2GseFGlPL5ejCFa6Zaz2fRXWovZRZSay936ReqKsKdS6kcsTAAAAAJaelTMer07w5vaH8v8He2/I/wBcHuptIPwWjJA3ZlwEL1++pGvXruk5sCggX8OBrcKBrcKBraYL7B1Ong72epz/zT/57+jhP/yWngMAAAAAAGA5YA3MWtiHVzj/xA9/mtZ/8K/0HAAAAAAAAMsBa2DWwj4u7+FAAIJQbxe5rDANAAAAAADDyosXL1IxzgAAAAAAAAAX78OBP9f5U/rzP/9z+sX/+W/pJQAsL3igYjFBvoYDW4UDW4UDW00X2Ducn/k//oC+53u+hx7e/h69JMYbqvGrva9T+8ujfDkQAAAAAACA+Yc18K/87l/oORfEOAMAAAAAABAAhDMAAAAAAAABzL1w5s82rzwwH2Oed9QXA+0v5mVy9HDMrzbyOap08FrP2rw+oGrWOgAAAACAJWc04cxijT9TrKfQT00zUuBa+/IUJBBHQJ3joZCGYHSEoL7apmrg57OVyJ58HgIAAAAAzCpe4fwLlb9G2z+a/HKgEFYlot7ZGfGLOM76TerUNkfzTm606MTav1GarHdz9U5bHHuHRDLByJRo5yxQNDNXatQW+Yj3KwMAAABgkWAN7HujBuMVzj9Z/k6qfiH55UAWVpYovblOQjrTYFzhm9pfhSlEHmkn/OKUDr6Ytc7CDl/QHtFoHysEof/AWm6HO/D+4thmfdqjzung49hpZQ+3nb5kZyBxXYnwCjst1ScDvdSQZ5Mk+efJIzka4HiRE6MMcpLp4PO51+rY1Upr7vEBAAAAAGYI1sD/y9/7Lj3nMn6M8+sBHVOFiqEeyiRHXWoI6bwuPZYsPMt0fHCivNFnPWreL0cCq/+gQIMt7alOrMtEe0R5n5ODCtFGldZFWlnE7V035zmhFtVp0xbI4thmffvOql5o06H61S6tm/03GlReidPX2xXrt4xoZXFpX5c6X8GISiFKy/ebkRd/+3ld2MSQbxOXIefJge1RqK05IwnxSIA4bumYWq/UOmnH3R6d3Uv79Pk45WfxiEKP9uQx8o8PAAAAADA/jC2c++/UqbO7HT60zxwKMWc8j/tFIbK0B/t1l9qHTdqOhGqJ7gqR1nhPCb/SPTskoEjFDaLjQag/tU+Pa0St/Rrx0TmcIxbEq1S8IaTwc8vTu9GiR17BHNPsG8/7Kq3fVmLSpK90qymuc0DyiNw5cI63SrUtsf5+V6RKpOy9BlUO7kZe/NI9IY7172E2cRhynmxOqfu0Y12P4OZd0RnoUPt9YV/ZOVqLOkerxTWiZwOPJ1sfZ0vZmCnd47CPIccHAAAAAJgjvMJ5/7e/Ro//0yf1XJrIuxh5Ht0wgcyHBqMYZyEQhYiOPL1CoHWIPbfxMQq1jlonsY9foPqhXhxA/0GZGo7Ad8M+yvf14gvgdHCsf1lcKZKQ2oJTGjyTP/wMtUlM/nnyEAI/ZUvVmZCIY6wJ6WzCaVjo041iJI5jfMdhhhwfAAAAAGDGYA3MWtiHVzj/77/95/Rv/5P/y4HR0Pu7sXeRvaE7ZiheTP4QBxuxvXy48LHyiEqRF4csRJMU5smQBQ6P4J0CMKEQVmgBh33Ub/Sic/R29YoLQHpok0hBzAwRkLk2cck/Tx7Ke+9iCXrpcebQFNPJcG0Z4zsOM+T4AAAAAAAzBmtg1sI+RgrV4Ie/Ck+rcYjFeZAPBzaoyzG70rPZoD2vp1p5LdeKWozLEAb1Mx+Oz224YQJatFWuF/V8n7oX6HGW4vewTo+juGTRCdhvEO2uyzQVr1fizoNAesf173ybJBhynmyUeG/s2w9IPqb6YYWqbwl7s/jmmOZIuGfle/o4/Qccxzzk+AAAAAAAc0S4cH59QHssMu04ZZ7G+ggHo2N2pahij3WP1mqF+LhiUiEfyjvdKOnlVwe0FuIllg8fCtFm9hPTw6NVqu23iKLz7AlxOTygYWz4AcVXLTqO0qC93dpry/HWvd04HKN7y/am59kkwZDz5MHx470bVp7KhwH1a+lu7lCPytG55ZSR36V7+oFEvV2ZVHhM7vEBAAAAAOaIlTN2JSZ4c/tD+f+DvTfkf7CcyLAcHmGwwnJ41IHfOjI8HGdxePnyJV27dk3PgUUB+RoObBUObBUObDVdYO9w8nTw2G/VAIvP4Hkn8TAg4pMBAAAAsLx4hfPWj32G7v5I8suBYNmQ4RfP7FCNArVvL5e3GQAAAADLBWtg1sI+vML5Z3/su+mnfiT55UCwfKxS7V3rjR5igmgGAAAAwCLDGpi1sI+VFy9epGKcAQAAAAAAAC7ehwMZBJGHA1sBABYZtHHhwFbhwFbTBfYOJ89W3lCNX+39BbW/jOcGAQAAAADAcsEamLWwD686/rnOn9He73y7ngMAAAAAAGA5YA3MWtgH3MoAAAAAAAAEAOEMJkyfHq7w57b17EVz9PAcX68EAAAAAAgHwvmiYEEXvf8441PZNq8PqMrb5orAUzr4Ih8vKUxZrPInxfXsDMFfGpw3YctfTFx50NdzI5KX74l1ctK2kXYS824eqvweWnZsdDmaxbJweaj6MZIdAQAAAA8QzheCuFGXiHrm/cf9JnVqm5leWCmatoi2Dyp6SRYDGhwSVTaI6lvzIUZL98T1W5/sXmxC8r0Zr+dJ2kZ9kbGyUaFG6aE4yjm4UqO2OO7OTT0PBCXaETbBO8gBAACcF69w/snyd1H1Cx/rOTA6fKPeEX81N9eFXOrQIEM4G3FZ1PPDWNvapuZhnR7neBWl19R4NR0PJHsxq3RwpD3cK0qo8fbskTOeT7OPfZxs72l2aIbtvbWPLafIq2s86cnlJl39aH2WJ3WQlc6cY0defj09PFLbFmodovvqi4nmWE7aMz3ovnwfgdvb1Npo0F6gZ9TNYyO480Nl3DywRbryypp1fu8sbyP2se2WsEX28QWOva00JvLBOXcqj4Ys95Zvla922XFtl12uAAAALB+sgVkL+/AK51+ofA9t/+g39Rw4N68HdEwVKl7R8+emRHcPsr2TLAoKtTXH89ko2WKqQ/XSgLbl+ljodWoF6t5S+5zI4wsR+Xw7OkbkPWXRsl+kE338k4MwD7jsIMh9elJQNm+pM/cfFGiwZa0TotUWMp1aOVrv9aSKTsQePVL7J7y82ccWYmqrTmt9s46Prb6UyNdOuz25jL2UbM+96yd6uxNqUZ02A8Tt6ZM9amxUaT0434tU28ofnYgQebBp57Et2DPg6yg/a0X51tttUDnq1JTp+MBcY553VuyzRfRIbifsKWxvbJF3fCm6r1r2flWl9ju8Lrm8RRRdvy+PzLFM+RWTLN92XfCXb8Pw+gEAAGCZYQ3MWtgHQjWmQP+dOnV2t6k2MeFMtHrnUYZ38pS6TzvU7Nuez7ti2w6134+3ddYbhFg0wnT1raqQ+k3q3dNb2V5zDgewwi9Wi2tCvA5ooOeHIQWldS4W1LEgLlJxg+h4YF2Xta2XjRY9MkIv4d0fduzGe76uh8vqnbYlJFepeENIs+cZV2t54qU4S4WpCDFpeTpTnt2bO0JwCuEnReUwGtQN9pTqcrEVp6f0dosq97uR4Ow87Q7t/JAoFa19c4wSre8aWww5/lFXdCJadNfkBZchLlue5dvi+u2yms6jhGf/SlGk6tgZ0fGWb0lY/QAAAAB8QDhfMJEXzgjQibGqvZOPLU8bo+KgXZTYmyR8XUb8rZQaemkA0lNK1HrbtocdJlCgeir9o6DEcUzWsdm7fEKtZyokI+yhTDWV7+vFPoTwNd7Rs1dF2hPbu+LYjXH2eXaV4NzL94Cy8HzVouOSSpM/tMJGlQseRTDXsXJVdOj0Wu5g9G7UqSDX+UcyfBSvm7j8/OOfDo71Lxe5/NCcV02xfXPyyA4Vss4znOnUDwAAAIuJVzj/+u/9N+r+PjT1eYmGhC/q4TjpKePh8K5ewCSFI6MePpsYQrQkh7rDUEPvdPDI8r6zKLXDBIRQSqV/XIYdW4VmmPCLgh3/bMHhHvUbKnSDp96uXjEM6T3N8U5nob2u9a3H+V58Fs+cJhneUBgSp6vKRdMKe1BT7Hk1oTQyxCK3I+Ej//hyVMKDXL4Rh3eYyfbwp/KIQ4VKx9R6pbcX1z/ssdqYKdQPAAAAcw1rYNbCPrzq+J/+uz+hnd/ClwPPAz8kVXhaFYLAM2QsH2yaREylEBX77J1sUOzzVd6zxr7tnXtM9cMKVd+ajHyXXsINIUD0fP+9MI/z6ZNNIX2ssAqJ8gCuFfWy111qpzyC4xJ6bGWzynXr8cxnA20//caLaF2fulkeZ85XR3yrbZ3jBlK6x/HDIl9DbHGlSGtDY+g95SID6UW+URR7jMKQ43M4hf1Aq7FVcnkmVh69HlBHXLG53tP32yN4nC++fgAAAJhvWAOzFvYBt/JFIETBHourxBB0VjiAeROBfJuD2SfU46e9mjbusLuYpHeuPbEYaxlfzd4/ffw9agZ4/FRsqWMTeY0l2pEPZ+llVwe0FurRHUrese0QjhUZTmME/eod9dYSTmf1CcnOCXt01bZ7RLsZV8t5QTqsQE7K2539oF0e6gHQTJy3mvB5bC++n1S54EnmgRuKIkcTxggtyj6+gL3jTl60qcrhOrzcCjkxk/KeZ+SRjAOPY8ULz9dECQznousHAACAxWXljMc6E7y5/aH8/8HeG/I/yOfly5d07do1PTccFsr8lobxBBUAAEyXUdu4ZQa2Cge2mi6wdzh5Ohge56nDw/dN2oZoBgAAAACYKyCcp07iVVoAAAAAAGAu8Arnn/jh76D1H8SXAwEAAAAAwHLBGpi1sI+VFy9epGKcAQAAAAAAAC7ehwMZBJGHA1sBMH+g3oYDW4UDW4UDW00X2DucPFshxhkAAAAAAIAAvMK5/1+/SccfQFMDAAAAAIDlgjUwa2EfXnX8P/3SH9NmG18OBAAAAAAAywVrYNbCPuBWBlPn9EmVVpxPUwMAAAAAzD4QzheF80lk/nRzzge0R9kWXBD8eecqHbzWsxlI0b/yUGw9HvLz6qGfUwcAAADATAHhfCEIEVYi6p2dEb+05KzfpE5tM0OUjbItuGxW77RFPo3/AZvSPZHH79YI340EAAAA5g8I5wsh8XXAm+sk5DANvGJ4lG2NxzP2Ttseaned7T09pYMv8jx7Vc1612s6dN+jA6ra+zlecnt7PofYxqwP8K5KL6w5lrO9nd4MTzyf50E/OsZwW3jOJ9Napoawe/0qL1fXyMeoPumL61fbPjwSC3lbO42vjV14StrBLNf7CmS67DAVx47uNarznzrpNcdRuOdwjuukK7kfAAAAAMbBK5xL3//ttPYmvhw4MV4P6JgqVLyi5/PI21aIoc3aWuSd7u0SVQ5OqH1nVQqwgrXu5ICovmWLUBaFXVqX60+otdGgshFaIfuWBrQt1wuRz6Jsv0gnmduLY5v1Q7yrLA73rp/I48h0UZ02tXjsPyjTsbg+te5MXaeP++XoGENtIdaVn7WitMv03dwRv3uiw1Kh1iteHndkOrUyDbbUtjs39cIIIVyv1mmtr4/1qkrtd6TkFmLbTnuPaN+2j4ZFc+lYn5P3bxHVCo7I7Yj57i21/uSgQo2S6fCkz9EUdlD7inVbVrrElE47AAAAAHywBmYt7MMrnP/9P//r9Kjqfw0HGJ3+O3Xq7G5TLUA4524rRHVno0hFPVu8XqHO84H83X+vIUT03Ujwrd7ZpuZhm7qWp7XZN4JwldZvV4ieDaSYG21fwZUatS1BvFpcIzockEoJIwToflg4Aoc+xIJ4lYo3hFjU18R0nnbTgjPJRoseWaJ66PUkri2X3V626DzqUkOc+65Zz3a5J876ukvtwyZtR2kq0Y6nA6HS+SjOa7H/tugMNd6zPMfW+VffqgrLHqvRCM857rKwtvZ1jgMAAACAIFgDsxb2gVCNC4Y9qtLDyYJqCEO3vVKkSiRQT6n7tEOV6yyjT2nwTHkno2F7GXqQjRS7ktH3ZWTIgdm+NGzrPNhzas67QuX7erGA44F7N+pUkOvc0JJshlwPe5f7azok43whDKeDY/0rAXdw9M9sVDqTcGcoE5H/JtfUORpUjq5xhQo1c9ZVqr17Qq1nZbUODyMCAAAAEwHC+QJhcSlDBgIeBgva1hFLBaqT8bQqTy2HbZiheTW1A7zcY+ybCIXgBxrHpf9AXMeNXnReDj+xkQ/TyeXiuoMEYMD1yNAMsUyku1Fy459HIe58JOAOjv6ZjUpnksHz4ZJbIs/RjPPATFGni8UzL1PhLwW8/g8AAAA4N17h/JUPv0WDP17Rc2Ac+IGuwtMqnfjewCAf3IoFW+62FuzhdAShJbJl2EbtcaBX1mXUfaWn1QoZ4ZCD8VBeV+U1Z/rUtTzONtITe6MYXW8ewdcjxeeaFU+e/VCmFzkCUKfHxmvN+coCVXqGG7QXPejXp4ce0Z9Kp9h/T1x/89bw0Yn0ObLQHYnIxgAAAADIgzUwa2EfXuH8P/yrj6j2f35Kz4GR0QKIhKhSYQZ68nlMR9h29c4jqj61QxDEpD2JHCt8cnDsDN2HhjeMui+nQ3ox9bZ78rG6cVil2r56IE6dc49o1xzJDeGQHu6AcBcm73qcEBP5YJ/prOgY4VK87VA4pll6rc3x2lR9m49Woh39oJ86V5loKz2SkEqnftAw7EE+fhtLj9ackBTzVg73bRsc/mPHgAMAAAAgG9bArIV9rJyx6zLBm9sfyv8f7L0h/4N8Xr58SdeuXdNzw2EPM78FIvMtERnwfmXqWcPxLC4L8q0PeGsCAKMxar1dZmCrcGCrcGCr6QJ7h5OngxHjPHU4HMF+G0IoybAGZkCDQ/0TAAAAAABcKBDOUyfxwZNg+GGv5NB8WehweJsBAAAAAKYBhPNcwaJbPxioJ4hmAAAAAIDpsPLixYtUjLN5MPDgH39D/gcAAAAAAGAZyNPB3ocDGQSRA6BAXVhMkK/hwFbhwFbhwFbTBfYOJ89WCNUAAAAAAAAgAAhnAAAAAAAAAvAK54/+/GP66l/oGQAAAAAAAJYE1sCshX14hfMXfv6P6Mf/7af1HGDkF+f0V/oAAAAAAMBiwhqYtbCP0UI1jh5a7xA2n/cdEXOMBRKh/EW/PHuk1ifsqCbzmWf3c8ly8n2qGwAAAAAATJURhLMQdCWinnmHcL9JndomHbzWqwPpv9egym6TKve7WijOO/qLfhsVYY/HnmviLwVWxHo9G9GMbSkn96Mozb5ZfkItqlMB3m4AAAAAgEtlBOGc+OLdzXUh/UZFicjq23eputGg7pFeLGFP60PqG2+s9LLqZa8PqOp4X22vrPHUKox3N+Wp5eMK8ZnvHU54e0cRq7e3qZW6Jg7x2KPG7jZt39ALRmaV1m9XiJ4N4HUGAAAAALhERgvVsJCCcKNK61f0ghCOunofJQYb+8kQhAaV94t0wp7Wd2tCMuplW0SPpPe1R83DOhVW9qj4SntjhVgta4HLcch7108cT+2mLZDvl6P17Tvq6DGndPDFMh0fmP3FucT2DxNCOJui55r69LhG1Hp79A9sx5xS92mHKrfXtT0AAAAAAMBl4BXOn/vuT9D3fpeesbFicwu1NepF4jYEIUz3G5EAXH2rSpXDNnWdUI8KtfaTx7SXlWh9Vyw5eEQ1Kdhdb+zqnbYliFepeIOo83yg5wUbLXqUEsya111qHzZpO1pforsHQgi/F+51Xr2zLYS9dU1RR0HPOwjBb3m3kx7wRsmsK9Bgyyf0AQAAAADApGENzFrYh3fpl3/+b9Jv/tRf6jmLmzvaGyumV0XaiwSfG+LgDYOQwrRC1be0ALyyTtWNDrXf92w7Nuw1jtNRvq8Xh/B6QJ2EmC3UOnplKCzsO1R/h8W26ig0t7I6F26Mc1IYmxjnExbvJTccBQAAAAAAXAysgVkL+xg7VIOu1Gh713h0Of45WwQyp++3hTAVovKqEaYFqh+K/Z92pbd4EvQfiGPe6EXp6In0BXOlSJXUA3tiujdamEXp7ZZ68PHosbi+Jq3f1CvGZPXOIxmOsueNyQYAAAAAANMiXDjzA3rOw3L8oB9R5XpRz+fBsb4dqkTxw3p6JUTmYZ0eB8cR56HfbhGlR6UvGCGc12gCAlV60htULjXE9d6NH6YcGxWOMskOBgAAAAAAGJ1w4cweZipHYQwrK+pBuqDYW471JTt+WKO91qPEEWezSrX9FlGtoNO3R7Rb0etCYK95j9ai/dXkf/tGHiIdW/y+ESssxYsbFpJ8O4iNip2eVAcDAAAAAACMw8oZu34TvLn9ofz/wd4b8j8Ay8zLly/p2rVreg4sCsjXcGCrcGCrcGCr6QJ7h5Ong8ePcQYAAAAAAGCJgHAGAAAAAABgKET/P8XPYxkT+jh2AAAAAElFTkSuQmCC;" parent="1" vertex="1">
          <mxGeometry x="-199.46" y="-110" width="688.93" height="237" as="geometry" />
        </mxCell>
        <mxCell id="SthXXuh-DSAAo5IE27aU-29" value="Maestro" style="rounded=0;whiteSpace=wrap;html=1;" parent="1" vertex="1">
          <mxGeometry x="-170" y="250" width="120" height="60" as="geometry" />
        </mxCell>
        <mxCell id="SthXXuh-DSAAo5IE27aU-30" value="Carrera" style="rounded=0;whiteSpace=wrap;html=1;" parent="1" vertex="1">
          <mxGeometry x="440" y="250" width="120" height="60" as="geometry" />
        </mxCell>
        <mxCell id="SthXXuh-DSAAo5IE27aU-31" value="Materia" style="rounded=0;whiteSpace=wrap;html=1;" parent="1" vertex="1">
          <mxGeometry x="140" y="250" width="120" height="60" as="geometry" />
        </mxCell>
        <mxCell id="SthXXuh-DSAAo5IE27aU-32" value="tiene" style="rhombus;whiteSpace=wrap;html=1;" parent="1" vertex="1">
          <mxGeometry x="310" y="240" width="80" height="80" as="geometry" />
        </mxCell>
        <mxCell id="SthXXuh-DSAAo5IE27aU-33" value="imparte" style="rhombus;whiteSpace=wrap;html=1;" parent="1" vertex="1">
          <mxGeometry y="240" width="80" height="80" as="geometry" />
        </mxCell>
        <mxCell id="SthXXuh-DSAAo5IE27aU-34" value="" style="endArrow=none;html=1;rounded=0;exitX=1;exitY=0.5;exitDx=0;exitDy=0;entryX=0;entryY=0.5;entryDx=0;entryDy=0;" parent="1" source="SthXXuh-DSAAo5IE27aU-29" target="SthXXuh-DSAAo5IE27aU-33" edge="1">
          <mxGeometry width="50" height="50" relative="1" as="geometry">
            <mxPoint x="220" y="280" as="sourcePoint" />
            <mxPoint x="270" y="230" as="targetPoint" />
          </mxGeometry>
        </mxCell>
        <mxCell id="SthXXuh-DSAAo5IE27aU-35" value="" style="endArrow=none;html=1;rounded=0;exitX=1;exitY=0.5;exitDx=0;exitDy=0;entryX=0;entryY=0.5;entryDx=0;entryDy=0;" parent="1" source="SthXXuh-DSAAo5IE27aU-33" target="SthXXuh-DSAAo5IE27aU-31" edge="1">
          <mxGeometry width="50" height="50" relative="1" as="geometry">
            <mxPoint x="-40" y="290" as="sourcePoint" />
            <mxPoint x="20" y="290" as="targetPoint" />
          </mxGeometry>
        </mxCell>
        <mxCell id="SthXXuh-DSAAo5IE27aU-36" value="" style="endArrow=none;html=1;rounded=0;exitX=1;exitY=0.5;exitDx=0;exitDy=0;entryX=0;entryY=0.5;entryDx=0;entryDy=0;" parent="1" source="SthXXuh-DSAAo5IE27aU-31" target="SthXXuh-DSAAo5IE27aU-32" edge="1">
          <mxGeometry width="50" height="50" relative="1" as="geometry">
            <mxPoint x="-30" y="300" as="sourcePoint" />
            <mxPoint x="30" y="300" as="targetPoint" />
          </mxGeometry>
        </mxCell>
        <mxCell id="SthXXuh-DSAAo5IE27aU-37" value="" style="endArrow=none;html=1;rounded=0;exitX=1;exitY=0.5;exitDx=0;exitDy=0;entryX=0;entryY=0.5;entryDx=0;entryDy=0;" parent="1" source="SthXXuh-DSAAo5IE27aU-32" target="SthXXuh-DSAAo5IE27aU-30" edge="1">
          <mxGeometry width="50" height="50" relative="1" as="geometry">
            <mxPoint x="-20" y="310" as="sourcePoint" />
            <mxPoint x="40" y="310" as="targetPoint" />
          </mxGeometry>
        </mxCell>
        <mxCell id="SthXXuh-DSAAo5IE27aU-38" value="id_maestro" style="ellipse;whiteSpace=wrap;html=1;" parent="1" vertex="1">
          <mxGeometry x="-290" y="190" width="70" height="50" as="geometry" />
        </mxCell>
        <mxCell id="SthXXuh-DSAAo5IE27aU-39" value="" style="endArrow=none;html=1;rounded=0;entryX=1;entryY=1;entryDx=0;entryDy=0;exitX=0;exitY=0;exitDx=0;exitDy=0;" parent="1" source="SthXXuh-DSAAo5IE27aU-29" target="SthXXuh-DSAAo5IE27aU-38" edge="1">
          <mxGeometry width="50" height="50" relative="1" as="geometry">
            <mxPoint x="250" y="220" as="sourcePoint" />
            <mxPoint x="300" y="170" as="targetPoint" />
          </mxGeometry>
        </mxCell>
        <mxCell id="SthXXuh-DSAAo5IE27aU-40" value="nombre" style="ellipse;whiteSpace=wrap;html=1;" parent="1" vertex="1">
          <mxGeometry x="-240" y="160" width="70" height="50" as="geometry" />
        </mxCell>
        <mxCell id="SthXXuh-DSAAo5IE27aU-41" value="" style="endArrow=none;html=1;rounded=0;entryX=0.5;entryY=1;entryDx=0;entryDy=0;exitX=0.25;exitY=0;exitDx=0;exitDy=0;" parent="1" source="SthXXuh-DSAAo5IE27aU-29" target="SthXXuh-DSAAo5IE27aU-40" edge="1">
          <mxGeometry width="50" height="50" relative="1" as="geometry">
            <mxPoint x="-160" y="260" as="sourcePoint" />
            <mxPoint x="-170" y="243" as="targetPoint" />
          </mxGeometry>
        </mxCell>
        <mxCell id="SthXXuh-DSAAo5IE27aU-42" value="sexo" style="ellipse;whiteSpace=wrap;html=1;" parent="1" vertex="1">
          <mxGeometry x="-170" y="150" width="70" height="50" as="geometry" />
        </mxCell>
        <mxCell id="SthXXuh-DSAAo5IE27aU-43" value="" style="endArrow=none;html=1;rounded=0;exitX=0.5;exitY=0;exitDx=0;exitDy=0;entryX=0.5;entryY=1;entryDx=0;entryDy=0;" parent="1" source="SthXXuh-DSAAo5IE27aU-29" target="SthXXuh-DSAAo5IE27aU-42" edge="1">
          <mxGeometry width="50" height="50" relative="1" as="geometry">
            <mxPoint x="150" y="130" as="sourcePoint" />
            <mxPoint x="200" y="80" as="targetPoint" />
          </mxGeometry>
        </mxCell>
        <mxCell id="SthXXuh-DSAAo5IE27aU-44" value="telefono" style="ellipse;whiteSpace=wrap;html=1;" parent="1" vertex="1">
          <mxGeometry x="-110" y="130" width="70" height="50" as="geometry" />
        </mxCell>
        <mxCell id="SthXXuh-DSAAo5IE27aU-45" value="direcccion" style="ellipse;whiteSpace=wrap;html=1;" parent="1" vertex="1">
          <mxGeometry x="-50" y="150" width="70" height="50" as="geometry" />
        </mxCell>
        <mxCell id="SthXXuh-DSAAo5IE27aU-46" value="" style="endArrow=none;html=1;rounded=0;exitX=0.75;exitY=0;exitDx=0;exitDy=0;" parent="1" source="SthXXuh-DSAAo5IE27aU-29" target="SthXXuh-DSAAo5IE27aU-45" edge="1">
          <mxGeometry width="50" height="50" relative="1" as="geometry">
            <mxPoint x="100" y="120" as="sourcePoint" />
            <mxPoint x="150" y="70" as="targetPoint" />
          </mxGeometry>
        </mxCell>
        <mxCell id="SthXXuh-DSAAo5IE27aU-47" value="" style="endArrow=none;html=1;rounded=0;exitX=0.625;exitY=0;exitDx=0;exitDy=0;entryX=0.5;entryY=1;entryDx=0;entryDy=0;exitPerimeter=0;" parent="1" source="SthXXuh-DSAAo5IE27aU-29" target="SthXXuh-DSAAo5IE27aU-44" edge="1">
          <mxGeometry width="50" height="50" relative="1" as="geometry">
            <mxPoint x="-70" y="260" as="sourcePoint" />
            <mxPoint x="-23" y="206" as="targetPoint" />
          </mxGeometry>
        </mxCell>
        <mxCell id="SthXXuh-DSAAo5IE27aU-48" value="id_materia" style="ellipse;whiteSpace=wrap;html=1;" parent="1" vertex="1">
          <mxGeometry x="110" y="180" width="70" height="50" as="geometry" />
        </mxCell>
        <mxCell id="SthXXuh-DSAAo5IE27aU-49" value="" style="endArrow=none;html=1;rounded=0;entryX=0.5;entryY=1;entryDx=0;entryDy=0;exitX=0;exitY=0;exitDx=0;exitDy=0;" parent="1" target="SthXXuh-DSAAo5IE27aU-48" edge="1">
          <mxGeometry width="50" height="50" relative="1" as="geometry">
            <mxPoint x="164" y="250" as="sourcePoint" />
            <mxPoint x="634" y="170" as="targetPoint" />
          </mxGeometry>
        </mxCell>
        <mxCell id="SthXXuh-DSAAo5IE27aU-50" value="nombre&lt;div&gt;materia&lt;/div&gt;" style="ellipse;whiteSpace=wrap;html=1;" parent="1" vertex="1">
          <mxGeometry x="200" y="180" width="70" height="50" as="geometry" />
        </mxCell>
        <mxCell id="SthXXuh-DSAAo5IE27aU-51" value="" style="endArrow=none;html=1;rounded=0;entryX=0.5;entryY=1;entryDx=0;entryDy=0;exitX=0.75;exitY=0;exitDx=0;exitDy=0;" parent="1" source="SthXXuh-DSAAo5IE27aU-31" target="SthXXuh-DSAAo5IE27aU-50" edge="1">
          <mxGeometry width="50" height="50" relative="1" as="geometry">
            <mxPoint x="194" y="250" as="sourcePoint" />
            <mxPoint x="164" y="243" as="targetPoint" />
          </mxGeometry>
        </mxCell>
        <mxCell id="SthXXuh-DSAAo5IE27aU-59" value="n" style="text;html=1;align=center;verticalAlign=middle;resizable=0;points=[];autosize=1;strokeColor=none;fillColor=none;" parent="1" vertex="1">
          <mxGeometry x="55" y="238" width="30" height="30" as="geometry" />
        </mxCell>
        <mxCell id="SthXXuh-DSAAo5IE27aU-60" value="id_carrera" style="ellipse;whiteSpace=wrap;html=1;" parent="1" vertex="1">
          <mxGeometry x="410" y="180" width="70" height="50" as="geometry" />
        </mxCell>
        <mxCell id="SthXXuh-DSAAo5IE27aU-61" value="" style="endArrow=none;html=1;rounded=0;entryX=0.5;entryY=1;entryDx=0;entryDy=0;exitX=0;exitY=0;exitDx=0;exitDy=0;" parent="1" target="SthXXuh-DSAAo5IE27aU-60" edge="1">
          <mxGeometry width="50" height="50" relative="1" as="geometry">
            <mxPoint x="464" y="250" as="sourcePoint" />
            <mxPoint x="934" y="170" as="targetPoint" />
          </mxGeometry>
        </mxCell>
        <mxCell id="SthXXuh-DSAAo5IE27aU-62" value="nombre&lt;div&gt;carrera&lt;/div&gt;" style="ellipse;whiteSpace=wrap;html=1;" parent="1" vertex="1">
          <mxGeometry x="500" y="180" width="70" height="50" as="geometry" />
        </mxCell>
        <mxCell id="SthXXuh-DSAAo5IE27aU-63" value="" style="endArrow=none;html=1;rounded=0;entryX=0.5;entryY=1;entryDx=0;entryDy=0;exitX=0.75;exitY=0;exitDx=0;exitDy=0;" parent="1" target="SthXXuh-DSAAo5IE27aU-62" edge="1">
          <mxGeometry width="50" height="50" relative="1" as="geometry">
            <mxPoint x="530" y="250" as="sourcePoint" />
            <mxPoint x="464" y="243" as="targetPoint" />
          </mxGeometry>
        </mxCell>
        <mxCell id="SthXXuh-DSAAo5IE27aU-64" value="n" style="text;html=1;align=center;verticalAlign=middle;resizable=0;points=[];autosize=1;strokeColor=none;fillColor=none;" parent="1" vertex="1">
          <mxGeometry x="290" y="238" width="30" height="30" as="geometry" />
        </mxCell>
        <mxCell id="SthXXuh-DSAAo5IE27aU-65" value="1" style="text;html=1;align=center;verticalAlign=middle;resizable=0;points=[];autosize=1;strokeColor=none;fillColor=none;" parent="1" vertex="1">
          <mxGeometry x="370" y="238" width="30" height="30" as="geometry" />
        </mxCell>
        <mxCell id="N67HdIwUYB3-zeJ6oalQ-1" value="1" style="text;html=1;align=center;verticalAlign=middle;resizable=0;points=[];autosize=1;strokeColor=none;fillColor=none;" vertex="1" parent="1">
          <mxGeometry x="-5" y="238" width="30" height="30" as="geometry" />
        </mxCell>
        <mxCell id="N67HdIwUYB3-zeJ6oalQ-2" value="Maestro" style="rounded=0;whiteSpace=wrap;html=1;" vertex="1" parent="1">
          <mxGeometry x="-164.99" y="580" width="120" height="60" as="geometry" />
        </mxCell>
        <mxCell id="N67HdIwUYB3-zeJ6oalQ-3" value="Carrera" style="rounded=0;whiteSpace=wrap;html=1;" vertex="1" parent="1">
          <mxGeometry x="445.01" y="580" width="120" height="60" as="geometry" />
        </mxCell>
        <mxCell id="N67HdIwUYB3-zeJ6oalQ-4" value="Materia" style="rounded=0;whiteSpace=wrap;html=1;" vertex="1" parent="1">
          <mxGeometry x="145.01" y="580" width="120" height="60" as="geometry" />
        </mxCell>
        <mxCell id="N67HdIwUYB3-zeJ6oalQ-5" value="tiene" style="rhombus;whiteSpace=wrap;html=1;" vertex="1" parent="1">
          <mxGeometry x="315.01" y="570" width="80" height="80" as="geometry" />
        </mxCell>
        <mxCell id="N67HdIwUYB3-zeJ6oalQ-6" value="imparte" style="rhombus;whiteSpace=wrap;html=1;" vertex="1" parent="1">
          <mxGeometry x="5.01" y="570" width="80" height="80" as="geometry" />
        </mxCell>
        <mxCell id="N67HdIwUYB3-zeJ6oalQ-7" value="" style="endArrow=none;html=1;rounded=0;exitX=1;exitY=0.5;exitDx=0;exitDy=0;entryX=0;entryY=0.5;entryDx=0;entryDy=0;" edge="1" parent="1" source="N67HdIwUYB3-zeJ6oalQ-2" target="N67HdIwUYB3-zeJ6oalQ-6">
          <mxGeometry width="50" height="50" relative="1" as="geometry">
            <mxPoint x="225.01" y="610" as="sourcePoint" />
            <mxPoint x="275.01" y="560" as="targetPoint" />
          </mxGeometry>
        </mxCell>
        <mxCell id="N67HdIwUYB3-zeJ6oalQ-8" value="" style="endArrow=none;html=1;rounded=0;exitX=1;exitY=0.5;exitDx=0;exitDy=0;entryX=0;entryY=0.5;entryDx=0;entryDy=0;" edge="1" parent="1" source="N67HdIwUYB3-zeJ6oalQ-6" target="N67HdIwUYB3-zeJ6oalQ-4">
          <mxGeometry width="50" height="50" relative="1" as="geometry">
            <mxPoint x="-34.99" y="620" as="sourcePoint" />
            <mxPoint x="25.009999999999998" y="620" as="targetPoint" />
          </mxGeometry>
        </mxCell>
        <mxCell id="N67HdIwUYB3-zeJ6oalQ-9" value="" style="endArrow=none;html=1;rounded=0;exitX=1;exitY=0.5;exitDx=0;exitDy=0;entryX=0;entryY=0.5;entryDx=0;entryDy=0;" edge="1" parent="1" source="N67HdIwUYB3-zeJ6oalQ-4" target="N67HdIwUYB3-zeJ6oalQ-5">
          <mxGeometry width="50" height="50" relative="1" as="geometry">
            <mxPoint x="-24.990000000000002" y="630" as="sourcePoint" />
            <mxPoint x="35.01" y="630" as="targetPoint" />
          </mxGeometry>
        </mxCell>
        <mxCell id="N67HdIwUYB3-zeJ6oalQ-10" value="" style="endArrow=none;html=1;rounded=0;exitX=1;exitY=0.5;exitDx=0;exitDy=0;entryX=0;entryY=0.5;entryDx=0;entryDy=0;" edge="1" parent="1" source="N67HdIwUYB3-zeJ6oalQ-5" target="N67HdIwUYB3-zeJ6oalQ-3">
          <mxGeometry width="50" height="50" relative="1" as="geometry">
            <mxPoint x="-14.99" y="640" as="sourcePoint" />
            <mxPoint x="45.01" y="640" as="targetPoint" />
          </mxGeometry>
        </mxCell>
        <mxCell id="N67HdIwUYB3-zeJ6oalQ-11" value="&lt;b data-sider-select-id=&quot;ac52b2ff-fb0d-43db-afd5-875f57f96b1b&quot;&gt;&lt;u data-sider-select-id=&quot;77bbc462-1ed3-485c-b6d8-519b7f1c7ea8&quot;&gt;id_maestro&lt;/u&gt;&lt;/b&gt;" style="ellipse;whiteSpace=wrap;html=1;" vertex="1" parent="1">
          <mxGeometry x="-320" y="570" width="70" height="50" as="geometry" />
        </mxCell>
        <mxCell id="N67HdIwUYB3-zeJ6oalQ-12" value="" style="endArrow=none;html=1;rounded=0;entryX=1;entryY=1;entryDx=0;entryDy=0;exitX=0;exitY=0.5;exitDx=0;exitDy=0;" edge="1" parent="1" source="N67HdIwUYB3-zeJ6oalQ-2" target="N67HdIwUYB3-zeJ6oalQ-11">
          <mxGeometry width="50" height="50" relative="1" as="geometry">
            <mxPoint x="255.01" y="550" as="sourcePoint" />
            <mxPoint x="305.01" y="500" as="targetPoint" />
          </mxGeometry>
        </mxCell>
        <mxCell id="N67HdIwUYB3-zeJ6oalQ-13" value="nombre" style="ellipse;whiteSpace=wrap;html=1;" vertex="1" parent="1">
          <mxGeometry x="-240" y="480" width="70" height="50" as="geometry" />
        </mxCell>
        <mxCell id="N67HdIwUYB3-zeJ6oalQ-14" value="" style="endArrow=none;html=1;rounded=0;entryX=0.5;entryY=1;entryDx=0;entryDy=0;exitX=0.25;exitY=0;exitDx=0;exitDy=0;" edge="1" parent="1" source="N67HdIwUYB3-zeJ6oalQ-2" target="N67HdIwUYB3-zeJ6oalQ-13">
          <mxGeometry width="50" height="50" relative="1" as="geometry">
            <mxPoint x="-154.99" y="590" as="sourcePoint" />
            <mxPoint x="-164.99" y="573" as="targetPoint" />
          </mxGeometry>
        </mxCell>
        <mxCell id="N67HdIwUYB3-zeJ6oalQ-15" value="sexo" style="ellipse;whiteSpace=wrap;html=1;" vertex="1" parent="1">
          <mxGeometry x="-164.99" y="480" width="70" height="50" as="geometry" />
        </mxCell>
        <mxCell id="N67HdIwUYB3-zeJ6oalQ-16" value="" style="endArrow=none;html=1;rounded=0;exitX=0.5;exitY=0;exitDx=0;exitDy=0;entryX=0.5;entryY=1;entryDx=0;entryDy=0;" edge="1" parent="1" source="N67HdIwUYB3-zeJ6oalQ-2" target="N67HdIwUYB3-zeJ6oalQ-15">
          <mxGeometry width="50" height="50" relative="1" as="geometry">
            <mxPoint x="155.01" y="460" as="sourcePoint" />
            <mxPoint x="205.01" y="410" as="targetPoint" />
          </mxGeometry>
        </mxCell>
        <mxCell id="N67HdIwUYB3-zeJ6oalQ-17" value="telefono" style="ellipse;whiteSpace=wrap;html=1;" vertex="1" parent="1">
          <mxGeometry x="-104.99" y="460" width="70" height="50" as="geometry" />
        </mxCell>
        <mxCell id="N67HdIwUYB3-zeJ6oalQ-18" value="Calle" style="ellipse;whiteSpace=wrap;html=1;" vertex="1" parent="1">
          <mxGeometry x="-40" y="460" width="70" height="50" as="geometry" />
        </mxCell>
        <mxCell id="N67HdIwUYB3-zeJ6oalQ-19" value="" style="endArrow=none;html=1;rounded=0;exitX=0.75;exitY=0;exitDx=0;exitDy=0;" edge="1" parent="1" source="N67HdIwUYB3-zeJ6oalQ-2" target="N67HdIwUYB3-zeJ6oalQ-18">
          <mxGeometry width="50" height="50" relative="1" as="geometry">
            <mxPoint x="105.01" y="450" as="sourcePoint" />
            <mxPoint x="155.01" y="400" as="targetPoint" />
          </mxGeometry>
        </mxCell>
        <mxCell id="N67HdIwUYB3-zeJ6oalQ-20" value="" style="endArrow=none;html=1;rounded=0;exitX=0.625;exitY=0;exitDx=0;exitDy=0;entryX=0.5;entryY=1;entryDx=0;entryDy=0;exitPerimeter=0;" edge="1" parent="1" source="N67HdIwUYB3-zeJ6oalQ-2" target="N67HdIwUYB3-zeJ6oalQ-17">
          <mxGeometry width="50" height="50" relative="1" as="geometry">
            <mxPoint x="-64.99" y="590" as="sourcePoint" />
            <mxPoint x="-17.990000000000002" y="536" as="targetPoint" />
          </mxGeometry>
        </mxCell>
        <mxCell id="N67HdIwUYB3-zeJ6oalQ-21" value="&lt;b data-sider-select-id=&quot;572bfcff-ad40-48a3-ad42-3e742befdf64&quot;&gt;&lt;u data-sider-select-id=&quot;f55f48c4-1a71-4232-9110-4146af5691f9&quot;&gt;id_materia&lt;/u&gt;&lt;/b&gt;" style="ellipse;whiteSpace=wrap;html=1;" vertex="1" parent="1">
          <mxGeometry x="115.01" y="510" width="70" height="50" as="geometry" />
        </mxCell>
        <mxCell id="N67HdIwUYB3-zeJ6oalQ-22" value="" style="endArrow=none;html=1;rounded=0;entryX=0.5;entryY=1;entryDx=0;entryDy=0;exitX=0;exitY=0;exitDx=0;exitDy=0;" edge="1" parent="1" target="N67HdIwUYB3-zeJ6oalQ-21">
          <mxGeometry width="50" height="50" relative="1" as="geometry">
            <mxPoint x="169.01" y="580" as="sourcePoint" />
            <mxPoint x="639.01" y="500" as="targetPoint" />
          </mxGeometry>
        </mxCell>
        <mxCell id="N67HdIwUYB3-zeJ6oalQ-23" value="nombre&lt;div&gt;materia&lt;/div&gt;" style="ellipse;whiteSpace=wrap;html=1;" vertex="1" parent="1">
          <mxGeometry x="145.01" y="460" width="70" height="50" as="geometry" />
        </mxCell>
        <mxCell id="N67HdIwUYB3-zeJ6oalQ-24" value="" style="endArrow=none;html=1;rounded=0;entryX=0.5;entryY=1;entryDx=0;entryDy=0;exitX=0.5;exitY=0;exitDx=0;exitDy=0;" edge="1" parent="1" source="N67HdIwUYB3-zeJ6oalQ-4" target="N67HdIwUYB3-zeJ6oalQ-23">
          <mxGeometry width="50" height="50" relative="1" as="geometry">
            <mxPoint x="199.01" y="580" as="sourcePoint" />
            <mxPoint x="169.01" y="573" as="targetPoint" />
          </mxGeometry>
        </mxCell>
        <mxCell id="N67HdIwUYB3-zeJ6oalQ-25" value="n" style="text;html=1;align=center;verticalAlign=middle;resizable=0;points=[];autosize=1;strokeColor=none;fillColor=none;" vertex="1" parent="1">
          <mxGeometry x="60.01" y="568" width="30" height="30" as="geometry" />
        </mxCell>
        <mxCell id="N67HdIwUYB3-zeJ6oalQ-26" value="&lt;b data-sider-select-id=&quot;a87aa811-1f71-44bf-8cd1-54f7ff0529dd&quot;&gt;&lt;u data-sider-select-id=&quot;9df97147-b45c-4478-9bd6-d25f8ecfadd5&quot;&gt;id_carrera&lt;/u&gt;&lt;/b&gt;" style="ellipse;whiteSpace=wrap;html=1;" vertex="1" parent="1">
          <mxGeometry x="415.01" y="510" width="70" height="50" as="geometry" />
        </mxCell>
        <mxCell id="N67HdIwUYB3-zeJ6oalQ-27" value="" style="endArrow=none;html=1;rounded=0;entryX=0.5;entryY=1;entryDx=0;entryDy=0;exitX=0;exitY=0;exitDx=0;exitDy=0;" edge="1" parent="1" target="N67HdIwUYB3-zeJ6oalQ-26">
          <mxGeometry width="50" height="50" relative="1" as="geometry">
            <mxPoint x="469.01" y="580" as="sourcePoint" />
            <mxPoint x="939.01" y="500" as="targetPoint" />
          </mxGeometry>
        </mxCell>
        <mxCell id="N67HdIwUYB3-zeJ6oalQ-28" value="nombre&lt;div&gt;carrera&lt;/div&gt;" style="ellipse;whiteSpace=wrap;html=1;" vertex="1" parent="1">
          <mxGeometry x="505.01" y="510" width="70" height="50" as="geometry" />
        </mxCell>
        <mxCell id="N67HdIwUYB3-zeJ6oalQ-29" value="" style="endArrow=none;html=1;rounded=0;entryX=0.5;entryY=1;entryDx=0;entryDy=0;exitX=0.75;exitY=0;exitDx=0;exitDy=0;" edge="1" parent="1" target="N67HdIwUYB3-zeJ6oalQ-28">
          <mxGeometry width="50" height="50" relative="1" as="geometry">
            <mxPoint x="535.01" y="580" as="sourcePoint" />
            <mxPoint x="469.01" y="573" as="targetPoint" />
          </mxGeometry>
        </mxCell>
        <mxCell id="N67HdIwUYB3-zeJ6oalQ-30" value="n" style="text;html=1;align=center;verticalAlign=middle;resizable=0;points=[];autosize=1;strokeColor=none;fillColor=none;" vertex="1" parent="1">
          <mxGeometry x="295.01" y="568" width="30" height="30" as="geometry" />
        </mxCell>
        <mxCell id="N67HdIwUYB3-zeJ6oalQ-31" value="1" style="text;html=1;align=center;verticalAlign=middle;resizable=0;points=[];autosize=1;strokeColor=none;fillColor=none;" vertex="1" parent="1">
          <mxGeometry x="375.01" y="568" width="30" height="30" as="geometry" />
        </mxCell>
        <mxCell id="N67HdIwUYB3-zeJ6oalQ-32" value="1" style="text;html=1;align=center;verticalAlign=middle;resizable=0;points=[];autosize=1;strokeColor=none;fillColor=none;" vertex="1" parent="1">
          <mxGeometry x="0.009999999999999787" y="568" width="30" height="30" as="geometry" />
        </mxCell>
        <mxCell id="N67HdIwUYB3-zeJ6oalQ-33" value="&lt;b data-sider-select-id=&quot;b24ee60e-2935-4b79-a1d1-d3261573ea9c&quot;&gt;&lt;u data-sider-select-id=&quot;9f55a277-4d89-4ff5-bc67-c57779222cea&quot;&gt;id_maestro&lt;/u&gt;&lt;/b&gt;" style="ellipse;whiteSpace=wrap;html=1;" vertex="1" parent="1">
          <mxGeometry x="220" y="460" width="70" height="50" as="geometry" />
        </mxCell>
        <mxCell id="N67HdIwUYB3-zeJ6oalQ-34" value="&lt;b data-sider-select-id=&quot;754c7964-95c7-4102-b046-8031a3f88c7f&quot;&gt;&lt;u data-sider-select-id=&quot;ff270bdc-bb6c-4620-b5df-416e2f566ccc&quot;&gt;id_carrera&lt;/u&gt;&lt;/b&gt;" style="ellipse;whiteSpace=wrap;html=1;" vertex="1" parent="1">
          <mxGeometry x="250" y="510" width="70" height="50" as="geometry" />
        </mxCell>
        <mxCell id="N67HdIwUYB3-zeJ6oalQ-35" value="" style="endArrow=none;html=1;rounded=0;entryX=0.5;entryY=1;entryDx=0;entryDy=0;exitX=0.633;exitY=0.05;exitDx=0;exitDy=0;exitPerimeter=0;" edge="1" parent="1" source="N67HdIwUYB3-zeJ6oalQ-4" target="N67HdIwUYB3-zeJ6oalQ-33">
          <mxGeometry width="50" height="50" relative="1" as="geometry">
            <mxPoint x="280" y="540" as="sourcePoint" />
            <mxPoint x="330" y="490" as="targetPoint" />
          </mxGeometry>
        </mxCell>
        <mxCell id="N67HdIwUYB3-zeJ6oalQ-36" value="" style="endArrow=none;html=1;rounded=0;exitX=0.75;exitY=0;exitDx=0;exitDy=0;entryX=0.243;entryY=0.96;entryDx=0;entryDy=0;entryPerimeter=0;" edge="1" parent="1" source="N67HdIwUYB3-zeJ6oalQ-4" target="N67HdIwUYB3-zeJ6oalQ-34">
          <mxGeometry width="50" height="50" relative="1" as="geometry">
            <mxPoint x="280" y="540" as="sourcePoint" />
            <mxPoint x="330" y="490" as="targetPoint" />
          </mxGeometry>
        </mxCell>
        <mxCell id="N67HdIwUYB3-zeJ6oalQ-37" value="apellido" style="ellipse;whiteSpace=wrap;html=1;" vertex="1" parent="1">
          <mxGeometry x="-300" y="518" width="70" height="50" as="geometry" />
        </mxCell>
        <mxCell id="N67HdIwUYB3-zeJ6oalQ-38" value="" style="endArrow=none;html=1;rounded=0;exitX=1;exitY=0.5;exitDx=0;exitDy=0;entryX=0.008;entryY=0.117;entryDx=0;entryDy=0;entryPerimeter=0;" edge="1" parent="1" source="N67HdIwUYB3-zeJ6oalQ-37" target="N67HdIwUYB3-zeJ6oalQ-2">
          <mxGeometry width="50" height="50" relative="1" as="geometry">
            <mxPoint x="90" y="660" as="sourcePoint" />
            <mxPoint x="140" y="610" as="targetPoint" />
          </mxGeometry>
        </mxCell>
        <mxCell id="N67HdIwUYB3-zeJ6oalQ-39" value="numero" style="ellipse;whiteSpace=wrap;html=1;" vertex="1" parent="1">
          <mxGeometry x="-19.990000000000002" y="510" width="70" height="50" as="geometry" />
        </mxCell>
        <mxCell id="N67HdIwUYB3-zeJ6oalQ-40" value="" style="endArrow=none;html=1;rounded=0;exitX=1;exitY=0;exitDx=0;exitDy=0;entryX=0;entryY=1;entryDx=0;entryDy=0;" edge="1" parent="1" source="N67HdIwUYB3-zeJ6oalQ-2" target="N67HdIwUYB3-zeJ6oalQ-39">
          <mxGeometry width="50" height="50" relative="1" as="geometry">
            <mxPoint x="170" y="500" as="sourcePoint" />
            <mxPoint x="220" y="450" as="targetPoint" />
          </mxGeometry>
        </mxCell>
      </root>
    </mxGraphModel>
  </diagram>
</mxfile>
